<?xml version="1.0" encoding="iso-8859-1"?>
<!-- Uploaded to: SVG Repo, www.svgrepo.com, Generator: SVG Repo Mixer Tools -->
<svg fill="#000000" height="800px" width="800px" version="1.1" id="Layer_1" xmlns="http://www.w3.org/2000/svg" xmlns:xlink="http://www.w3.org/1999/xlink" 
	 viewBox="0 0 512 512" xml:space="preserve">
<g>
	<g>
		<path fill="#3e3e3e" d="M402.286,0c-29.377,0-55.687,13.394-73.143,34.392C311.687,13.394,285.377,0,256,0s-55.687,13.394-73.143,34.392
			C165.401,13.394,139.091,0,109.714,0c-52.43,0-95.086,42.655-95.086,95.086v146.286c0,66.194,73.143,106.971,73.143,153.6v43.886
			c0,40.331,32.812,73.143,73.143,73.143c40.331,0,73.143-32.812,73.143-73.143v-36.571c0-12.099,9.844-21.943,21.943-21.943
			s21.943,9.844,21.943,21.943v36.571c0,40.331,32.812,73.143,73.143,73.143s73.143-32.812,73.143-73.143v-43.886
			c0-48.274,73.143-85.577,73.143-153.6V95.086C497.371,42.655,454.716,0,402.286,0z M453.486,241.371
			c0,46.08-73.143,88.503-73.143,153.6v43.886c0,16.132-13.125,29.257-29.257,29.257s-29.257-13.125-29.257-29.257v-36.571
			c0-36.298-29.531-65.829-65.829-65.829s-65.829,29.531-65.829,65.829v36.571c0,16.132-13.125,29.257-29.257,29.257
			s-29.257-13.125-29.257-29.257v-43.886c0-68.389-73.143-106.789-73.143-153.6V95.086c0-28.232,22.968-51.2,51.2-51.2
			s51.2,22.968,51.2,51.2H204.8c0-26.043,19.55-47.591,44.741-50.779l-65.618,131.236h117.029l-42.636,85.273l39.253,19.626
			l74.392-148.784H254.932l36.662-73.324c9.612,9.314,15.606,22.342,15.606,36.753h43.886c0-28.232,22.968-51.2,51.2-51.2
			s51.2,22.968,51.2,51.2V241.371z"/>
	</g>
</g>
</svg>