<?xml version="1.0" encoding="UTF-8"?>
<svg id="svg3822" xmlns="http://www.w3.org/2000/svg" xmlns:svg="http://www.w3.org/2000/svg" version="1.1" viewBox="0 0 682.7 682.7">
  <!-- Generator: Adobe Illustrator 29.2.1, SVG Export Plug-In . SVG Version: 2.1.0 Build 116)  -->
  <path d="M561.3,0h-91.8c-22.1,0-40,17.9-40,40s15.6,37.5,35.5,39.8l-27.5,27.5c-38.1-26.6-82.6-40.6-129.5-40.6s-75.6,9.6-108.8,27.8c-6.5,3.5-8.8,11.6-5.3,18.1,3.5,6.5,11.6,8.8,18.1,5.3,29.2-16,62.4-24.5,95.9-24.5s87.3,14.5,122.6,42c5.3,4.1,12.9,3.7,17.6-1.1l58.1-58.1c3.8-3.8,5-9.5,2.9-14.5s-6.9-8.2-12.3-8.2h-27.5c-7.4,0-13.3-6-13.3-13.3s6-13.3,13.3-13.3h91.8c7.4,0,13.3,6,13.3,13.3v91.8c0,7.4-6,13.3-13.3,13.3s-13.3-6-13.3-13.3v-27.5c0-5.4-3.2-10.3-8.2-12.3-5-2.1-10.7-.9-14.5,2.9l-58.1,58.1c-4.8,4.8-5.2,12.3-1.1,17.6,27.5,35.3,42,77.8,42,122.6,0,100.7-75.2,186-175,198.4-6.7.8-11.7,6.5-11.7,13.2v57.6c0,7.4,6,13.3,13.3,13.3h26.7c7.4,0,13.3,6,13.3,13.3s-6,13.3-13.3,13.3h-26.7c-7.4,0-13.3,6-13.3,13.3v26.7c0,7.4-6,13.3-13.3,13.3s-13.3-6-13.3-13.3v-26.7c0-7.4-6-13.3-13.3-13.3h-26.7c-7.4,0-13.3-6-13.3-13.3s6-13.3,13.3-13.3h26.7c7.4,0,13.3-6,13.3-13.3v-57.6c0-6.7-5-12.4-11.7-13.2-99.8-12.4-175-97.8-175-198.4s8.5-66.7,24.5-96c3.5-6.5,1.2-14.6-5.3-18.1-6.5-3.5-14.6-1.2-18.1,5.3-18.2,33.1-27.8,70.8-27.8,108.8,0,110.2,79.4,204.1,186.7,223.1v32.8h-13.3c-22.1,0-40,17.9-40,40s17.9,40,40,40h13.3v13.3c0,22.1,17.9,40,40,40s40-17.9,40-40v-13.3h13.3c22.1,0,40-17.9,40-40s-17.9-40-40-40h-13.3v-32.8c107.2-19.1,186.7-113,186.7-223.1s-14-91.4-40.6-129.5l27.5-27.5c2.2,20,19.2,35.5,39.8,35.5s40-17.9,40-40V40C601.3,17.9,583.4,0,561.3,0Z"/>
  <path d="M308,466.7c95.6,0,173.3-77.8,173.3-173.3s-77.8-173.3-173.3-173.3-173.3,77.8-173.3,173.3,77.8,173.3,173.3,173.3ZM308,146.7c80.9,0,146.7,65.8,146.7,146.7s-65.8,146.7-146.7,146.7-146.7-65.8-146.7-146.7,65.8-146.7,146.7-146.7Z"/>
  <path d="M157.2,155.8c2.8,0,5.7-.9,8.1-2.7h0c5.8-4.5,7-12.8,2.5-18.7s-12.8-7-18.7-2.5c-5.8,4.5-7,12.8-2.5,18.7,2.6,3.4,6.6,5.2,10.6,5.2Z"/>
</svg>