<?xml version="1.0" encoding="UTF-8"?>
<svg id="svg1281" xmlns="http://www.w3.org/2000/svg" xmlns:svg="http://www.w3.org/2000/svg" version="1.1" viewBox="0 0 682.7 682.7">
  <!-- Generator: Adobe Illustrator 29.2.1, SVG Export Plug-In . SVG Version: 2.1.0 Build 116)  -->
  <path d="M631.3,464.5s0,0,0,0v-104.9c0-60.3-49-109.3-109.3-109.3s-109.3,49-109.3,109.3v164.9c0,43.1-35.1,78.2-78.2,78.2s-78.2-35.1-78.2-78.2v-23.7c1.9-2.3,3.1-5.3,3.1-8.6v-47.7c39.9-9.1,76.3-31,103.2-62.5,29.8-34.7,46.1-79,46.1-124.7v-61.3c0-18.9-12.3-34.9-29.3-40.5v-62.1c0-32.9-23.9-60.3-55.3-65.7-5.2-16-20.3-27.7-38-27.7s-40,17.9-40,40,17.9,40,40,40,31.3-10.5,37.2-25.3c17,4.6,29.5,20.2,29.5,38.6v62.1c-17,5.6-29.3,21.7-29.3,40.5v61.3c0,28.6-11.2,55.5-31.7,75.8-20.4,20.2-47.4,31.2-76.1,30.9-58.2-.6-105.6-49.1-105.6-108.2v-59.8c0-18.9-12.3-34.9-29.3-40.5v-62.1c0-18.4,12.5-34,29.5-38.6,5.9,14.8,20.3,25.3,37.2,25.3s40-17.9,40-40S169.4,0,147.3,0s-32.8,11.6-38,27.7c-31.4,5.4-55.3,32.8-55.3,65.7v62.1c-17,5.6-29.3,21.7-29.3,40.5v59.4c0,46,16.3,90.6,45.9,125.7,27,31.9,63.3,54.2,103.4,63.4v47.7c0,2.7.8,5.3,2.2,7.4v24.9c0,87.2,71,158.2,158.2,158.2s38.9-3.6,57.2-10.7c6.9-2.7,10.3-10.4,7.6-17.3-2.7-6.9-10.4-10.3-17.3-7.6-15.1,5.9-31.1,8.9-47.5,8.9-72.5,0-131.6-59-131.6-131.6v-18.9h26.7v18.9c0,57.8,47.1,104.9,104.9,104.9s104.9-47.1,104.9-104.9v-164.9c0-45.6,37.1-82.7,82.7-82.7s82.7,37.1,82.7,82.7v92.9c-4.3-.9-8.8-1.3-13.3-1.3s-9,.5-13.3,1.3v-92.9c0-30.9-25.1-56-56-56s-56,25.1-56,56v164.9c0,16.3-3,32.2-8.8,47.3-2.7,6.9.8,14.6,7.6,17.2,1.6.6,3.2.9,4.8.9,5.3,0,10.4-3.2,12.4-8.5,7-18.2,10.6-37.3,10.6-57v-164.9c0-16.2,13.2-29.3,29.3-29.3s29.3,13.2,29.3,29.3v104.9s0,0,0,0c-16.2,12.2-26.7,31.5-26.7,53.3,0,36.8,29.9,66.7,66.7,66.7s66.7-29.9,66.7-66.7-10.5-41.1-26.7-53.3ZM286,53.3c-7.4,0-13.3-6-13.3-13.3s6-13.3,13.3-13.3,13.3,6,13.3,13.3-6,13.3-13.3,13.3ZM147.3,26.7c7.4,0,13.3,6,13.3,13.3s-6,13.3-13.3,13.3-13.3-6-13.3-13.3,6-13.3,13.3-13.3ZM91,363.9c-25.6-30.3-39.7-68.8-39.7-108.5v-59.4c0-8.8,7.2-16,16-16s16,7.2,16,16v59.8c0,73.7,59.2,134.2,132,134.9,35.8.3,69.6-13.4,95.1-38.6,25.5-25.3,39.6-58.9,39.6-94.7v-61.3c0-8.8,7.2-16,16-16s16,7.2,16,16v61.3c0,39.3-14.1,77.5-39.7,107.4-25.3,29.6-60.3,49.4-98.4,55.7-6.4,1.1-11.2,6.6-11.2,13.2v45.3h-32v-45.3c0-6.5-4.7-12.1-11.1-13.2-38.2-6.4-73.2-26.5-98.5-56.5ZM591.3,557.8c-22.1,0-40-17.9-40-40s17.9-40,40-40,40,17.9,40,40-17.9,40-40,40Z"/>
  <path d="M604.4,515.2c-.2-.9-.4-1.7-.8-2.5-.3-.8-.8-1.6-1.2-2.3-.2-.4-.5-.7-.8-1.1-.3-.3-.6-.7-.9-1-.3-.3-.6-.6-1-.9s-.7-.5-1.1-.8c-.7-.5-1.5-.9-2.3-1.2-.8-.3-1.6-.6-2.5-.8-.4,0-.9-.2-1.3-.2-.9,0-1.8,0-2.6,0-.4,0-.9.1-1.3.2-.8.2-1.7.4-2.5.8-.8.3-1.6.7-2.3,1.2-.4.2-.7.5-1,.8s-.7.6-1,.9c-.3.3-.6.6-.9,1-.3.3-.5.7-.8,1.1-.5.7-.9,1.5-1.2,2.3-.3.8-.6,1.6-.8,2.5,0,.4-.2.9-.2,1.3,0,.4,0,.9,0,1.3s0,.9,0,1.3c0,.4.1.9.2,1.3.2.8.4,1.7.8,2.5.3.8.8,1.6,1.2,2.3.2.4.5.7.8,1,.3.3.6.7.9,1,2.5,2.5,5.9,3.9,9.4,3.9s7-1.4,9.4-3.9c.3-.3.6-.6.9-1,.3-.3.5-.7.8-1,.5-.7.9-1.5,1.2-2.3.3-.8.6-1.7.8-2.5,0-.4.1-.9.2-1.3,0-.4,0-.9,0-1.3s0-.9,0-1.3c0-.4-.1-.9-.2-1.3Z"/>
  <path d="M449.9,624.2c-.2-.9-.4-1.7-.8-2.5-.3-.8-.7-1.6-1.2-2.3-.2-.4-.5-.7-.8-1.1-.3-.3-.6-.7-.9-1-.3-.3-.6-.6-1-.9-.3-.3-.7-.5-1-.8-.7-.5-1.5-.9-2.3-1.2-.8-.3-1.7-.6-2.5-.8-.4,0-.9-.2-1.3-.2-4-.4-8,1-10.7,3.8-.3.3-.6.6-.9,1-.3.3-.5.7-.8,1.1-.5.7-.9,1.5-1.2,2.3-.3.8-.6,1.6-.8,2.5,0,.4-.2.9-.2,1.3,0,.4,0,.9,0,1.3,0,3.5,1.4,6.9,3.9,9.4,2.5,2.5,5.9,3.9,9.4,3.9s.9,0,1.3,0c.4,0,.9-.1,1.3-.2.8-.2,1.7-.4,2.5-.8.8-.3,1.6-.8,2.3-1.2.4-.2.7-.5,1-.8.3-.3.7-.6,1-.9,2.5-2.5,3.9-5.9,3.9-9.4s0-.9,0-1.3c0-.4-.1-.9-.2-1.3Z"/>
</svg>