<?xml version="1.0" encoding="UTF-8"?>
<svg id="svg4494" xmlns="http://www.w3.org/2000/svg" xmlns:svg="http://www.w3.org/2000/svg" version="1.1" viewBox="0 0 682.7 682.7">
  <!-- Generator: Adobe Illustrator 29.2.1, SVG Export Plug-In . SVG Version: 2.1.0 Build 116)  -->
  <path d="M568.4,396.5l-153.5-40.1v-14.9c37.4-24.2,62.2-66.3,62.2-114v-93.5C477.1,60.1,417,0,343.1,0h-3.6C265.7,0,205.6,60.1,205.6,134v5.3s0,0,0,0v88.2c0,48.1,25.1,90.4,62.9,114.5v14.4l-154.2,40.1c-51.6,13.4-87.7,60.1-87.7,113.4v159.4c0,7.4,6,13.3,13.3,13.3h602.7c7.4,0,13.3-6,13.3-13.3v-34c0-7.4-6-13.3-13.3-13.3s-13.3,6-13.3,13.3v20.7h-274.2v-89l82.2-175.9c43.1,16.1,72.4,57.7,72.4,104.3v53.3c-15.9,5.5-27.4,20.7-27.4,38.5s18.3,40.7,40.7,40.7,40.7-18.3,40.7-40.7-11.5-32.9-27.4-38.5v-53.3c0-32.9-11.8-63.8-31.8-88l57,14.9c39.8,10.4,67.7,46.4,67.7,87.6v5.5c0,7.4,6,13.3,13.3,13.3s13.3-6,13.3-13.3v-5.5c0-53.3-36-99.9-87.6-113.4ZM523.1,601.2c-7.8,0-14.1-6.3-14.1-14.1s6.3-14.1,14.1-14.1,14.1,6.3,14.1,14.1-6.3,14.1-14.1,14.1ZM339.5,26.7h3.6c59.2,0,107.3,48.1,107.3,107.3v16.9c-13.5-2.9-25.9-10.2-35-20.9l-3.9-4.6c2.8-8.1,4.3-16.7,4.3-25.7s-6-13.3-13.3-13.3-13.3,6-13.3,13.3c0,29-23.6,52.6-52.6,52.6h-104.3v-18.3c0-59.2,48.1-107.3,107.3-107.3ZM232.2,227.5v-48.5h104.3c24.6,0,46.6-11.2,61.1-28.9,14,15.1,32.6,24.9,52.8,27.9v49.5c0,60.2-48.9,109.1-109.1,109.1s-109.1-48.9-109.1-109.1ZM341.3,363.2c16.5,0,32.3-3,46.9-8.4v11.9c0,6.1,4.1,11.4,10,12.9l7,1.8c.8.4,1.7.8,2.7,1.1l3.5,1-69.7,149.2-69.8-149.4,2.8-.8c.6-.2,1.2-.4,1.7-.6l8.7-2.3c5.9-1.5,10-6.8,10-12.9v-11.6c14.4,5.2,30,8.1,46.2,8.1ZM53.3,656v-146.1c0-41.2,27.9-77.2,67.7-87.6l56.9-14.8c-20,24.2-31.7,55-31.7,87.9v6.3c-27.6,6.1-48.3,30.8-48.3,60.2v52.7c0,7.4,6,13.3,13.3,13.3h18.5c7.4,0,13.3-6,13.3-13.3s-6-13.3-13.3-13.3h-5.2v-39.4c0-19.3,15.7-35,35-35s35,15.7,35,35v39.4h-7.1c-7.4,0-13.3,6-13.3,13.3s6,13.3,13.3,13.3h20.4c7.4,0,13.3-6,13.3-13.3v-52.7c0-29.4-20.7-54.1-48.3-60.2v-6.3c0-46.9,29.6-88.6,73.1-104.6l82.5,176.4v88.8H53.3Z"/>
  <path d="M411.4,595.6c-.3-.8-.7-1.6-1.2-2.3-.2-.4-.5-.7-.8-1.1-.3-.3-.6-.7-.9-1s-.6-.6-1-.9c-.3-.3-.7-.5-1.1-.8-.7-.5-1.5-.9-2.3-1.2-.8-.3-1.6-.6-2.5-.8-.4,0-.9-.2-1.3-.2-.9,0-1.8,0-2.6,0-.4,0-.9.1-1.3.2-.8.2-1.7.4-2.5.8-.8.3-1.6.8-2.3,1.2-.4.2-.7.5-1,.8-.3.3-.7.6-1,.9-.3.3-.6.6-.9,1-.3.3-.5.7-.8,1.1-.5.7-.9,1.5-1.2,2.3-.3.8-.6,1.6-.8,2.5,0,.4-.2.9-.2,1.3,0,.4,0,.9,0,1.3,0,3.5,1.4,6.9,3.9,9.4.3.3.6.6,1,.9.3.3.7.5,1,.8.7.5,1.5.9,2.3,1.2.8.3,1.7.6,2.5.8.4,0,.9.1,1.3.2.4,0,.9,0,1.3,0s.9,0,1.3,0c.4,0,.9-.1,1.3-.2.8-.2,1.7-.4,2.5-.8.8-.3,1.6-.8,2.3-1.2.4-.2.7-.5,1.1-.8.3-.3.7-.6,1-.9,2.5-2.5,3.9-5.9,3.9-9.4s0-.9,0-1.3c0-.4-.1-.9-.2-1.3-.2-.8-.4-1.7-.8-2.5Z"/>
  <path d="M655,570.2c-.3-.8-.8-1.6-1.2-2.3-.2-.4-.5-.7-.8-1-.3-.3-.6-.7-.9-1-.3-.3-.6-.6-1-.9-.3-.3-.7-.5-1.1-.8-.7-.5-1.5-.9-2.3-1.2-.8-.3-1.6-.6-2.5-.8-.4,0-.9-.2-1.3-.2-.9,0-1.8,0-2.6,0-.4,0-.9.1-1.3.2-.8.2-1.7.4-2.5.8-.8.3-1.6.8-2.3,1.2-.4.2-.7.5-1.1.8-.3.3-.7.6-1,.9-2.5,2.5-3.9,5.9-3.9,9.4s0,.9,0,1.3c0,.4.1.9.2,1.3.2.9.4,1.7.8,2.5.3.8.7,1.6,1.2,2.3.2.4.5.7.8,1.1.3.3.6.7.9,1,.3.3.6.6,1,.9.3.3.7.5,1.1.8.7.5,1.5.9,2.3,1.2.8.3,1.6.6,2.5.8.4,0,.9.1,1.3.2.4,0,.9,0,1.3,0s.9,0,1.3,0c.4,0,.9-.1,1.3-.2.9-.2,1.7-.4,2.5-.8.8-.3,1.6-.8,2.3-1.2.4-.2.7-.5,1.1-.8.3-.3.7-.6,1-.9.3-.3.6-.6.9-1,.3-.3.5-.7.8-1.1.5-.7.9-1.5,1.2-2.3.3-.8.6-1.6.8-2.5,0-.4.1-.9.2-1.3,0-.4,0-.9,0-1.3s0-.9,0-1.3c0-.4-.1-.9-.2-1.3-.2-.8-.4-1.7-.8-2.5Z"/>
</svg>