<?xml version="1.0" encoding="UTF-8"?>
<svg id="svg3243" xmlns="http://www.w3.org/2000/svg" xmlns:svg="http://www.w3.org/2000/svg" version="1.1" viewBox="0 0 682.7 682.7">
  <!-- Generator: Adobe Illustrator 29.2.1, SVG Export Plug-In . SVG Version: 2.1.0 Build 116)  -->
  <path d="M626.8,151.4h-27.8s0,0,0,0h-82.2s0,0,0,0v-64.8c0-33.1-26.8-60-59.8-60h-231.3c-33,0-59.8,26.9-59.8,60v64.8h-78.2s0,0,0,0h-31.7C25,151.4,0,176.5,0,207.3v392.8c0,30.8,25,55.9,55.8,55.9h31.7s0,0,0,0h539.2c30.8,0,55.8-25.1,55.8-55.9V207.4c0-30.8-25-55.9-55.8-55.9ZM256.7,151.4v-33.7h169.3v33.7h-169.3ZM225.7,53.3h231.3c18.3,0,33.2,15,33.2,33.4v64.8h-37.5v-47c0-7.4-6-13.3-13.3-13.3h-196c-7.4,0-13.3,6-13.3,13.3v47h-37.5v-64.8c0-18.4,14.9-33.4,33.2-33.4ZM26.7,600.1V207.3c0-16.1,13.1-29.3,29.2-29.3h18.4v451.3h-18.4c-16.1,0-29.2-13.1-29.2-29.3ZM100.9,178.1h55.5v451.3h-55.5V178.1ZM183.1,178.1h60.2s0,0,0,0h195.9s0,0,0,0h64.2v451.3H183.1V178.1ZM656,600.1c0,16.1-13.1,29.3-29.2,29.3h-14.4v-166.1c0-7.4-6-13.3-13.3-13.3s-13.3,6-13.3,13.3v166.1h-55.5V178.1h55.5v164.7c0,7.4,6,13.3,13.3,13.3s13.3-6,13.3-13.3v-164.7h14.4c16.1,0,29.2,13.1,29.2,29.3v392.8Z"/>
  <path d="M437.1,354h-46.8v-46.9c0-7.4-6-13.3-13.3-13.3h-71.3c-7.4,0-13.3,6-13.3,13.3v46.9h-46.8c-7.4,0-13.3,6-13.3,13.3v71.4c0,7.4,6,13.3,13.3,13.3h46.8v46.9c0,7.4,6,13.3,13.3,13.3h71.3c7.4,0,13.3-6,13.3-13.3v-46.9h46.8c7.4,0,13.3-6,13.3-13.3v-71.4c0-7.4-6-13.3-13.3-13.3ZM423.7,425.4h-46.8c-7.4,0-13.3,6-13.3,13.3v46.9h-44.6v-46.9c0-7.4-6-13.3-13.3-13.3h-46.8v-44.8h46.8c7.4,0,13.3-6,13.3-13.3v-46.9h44.6v46.9c0,7.4,6,13.3,13.3,13.3h46.8v44.8Z"/>
  <path d="M612.1,400.7c-.2-.8-.4-1.7-.8-2.5-.3-.8-.8-1.6-1.2-2.3-.2-.4-.5-.7-.8-1-.3-.3-.6-.7-.9-1-.3-.3-.6-.6-1-.9-.3-.3-.7-.5-1-.8-.7-.5-1.5-.9-2.3-1.2-.8-.3-1.6-.6-2.5-.8-.4,0-.9-.2-1.3-.2-.9,0-1.8,0-2.6,0-.4,0-.9.1-1.3.2-.9.2-1.7.4-2.5.8-.8.3-1.6.8-2.3,1.2-.4.2-.7.5-1.1.8-.3.3-.7.6-1,.9-.3.3-.6.6-.9,1-.3.3-.5.7-.8,1-.5.7-.9,1.5-1.2,2.3-.3.8-.6,1.7-.8,2.5,0,.4-.2.9-.2,1.3,0,.4,0,.9,0,1.3s0,.9,0,1.3c0,.4.1.9.2,1.3.2.9.4,1.7.8,2.5.3.8.8,1.6,1.2,2.3.2.4.5.7.8,1,.3.3.6.7.9,1,.3.3.6.6,1,.9.3.3.7.5,1.1.8.7.5,1.5.9,2.3,1.2.8.3,1.6.6,2.5.8.4,0,.9.2,1.3.2.4,0,.9,0,1.3,0s.9,0,1.3,0c.4,0,.9-.1,1.3-.2.8-.2,1.7-.4,2.5-.8.8-.3,1.6-.7,2.3-1.2.4-.2.7-.5,1-.8.3-.3.7-.6,1-.9.3-.3.6-.6.9-1,.3-.3.5-.7.8-1,.5-.7.9-1.5,1.2-2.3.3-.8.6-1.6.8-2.5,0-.4.2-.9.2-1.3,0-.4,0-.9,0-1.3s0-.9,0-1.3c0-.4-.1-.9-.2-1.3Z"/>
</svg>