<svg id="Capa_1" enable-background="new 0 0 512 512" height="512" viewBox="0 0 512 512" width="512" xmlns="http://www.w3.org/2000/svg"><g><path d="m489.57 2.93c-1.86-1.86-4.44-2.93-7.07-2.93-39.08 0-80.52 2.77-123.19 8.24-5.47.7-9.35 5.72-8.65 11.19.64 4.97 5.54 8.69 10.55 8.69 38.16-4.89 76.03-7.63 111.29-8.06v145.55c-10.68.59-21.15.89-31.13.89-47.43-.02-79.82-6.63-105.24-13.1-5.41-1.38-28.99-7.75-35.44-9.27-13.1-3.09-23.34-4.46-33.19-4.46-3.77 0-7.18 2.08-8.9 5.43-1.71 3.33-1.42 7.3.75 10.36v.01c.75 1.07 18.21 26.82 18.2 71.74 0 14.5-1.83 29.58-5.45 44.81-2.71 11.49-5.38 22.34-7.95 32.82-10.46 42.54-18.72 76.13-18.81 106.69 0 14.09 1.85 26.59 5.64 38.22.32.97 3.38 10.16 4.38 13.85 1.41 5.21 2.15 9.84 2.14 13.4-.01 8.26-6.74 14.979-15 15h-155c-5.5-.01-9.99-4.5-10-10 .01-5.5 5.28-10.037 10.78-10.047 3.26-.39 20.98-2.733 41.43-9.644 13.03-4.42 24.66-9.819 34.55-16.029 12.78-8.051 22.75-17.53 29.64-28.19 3.86-5.94 6.58-12.32 8.34-19.51 1.59-6.48 2.35-13.49 2.33-21.42-.03-14.48-2.4-30.71-5.15-49.5-.168-1.161-.338-2.337-.509-3.515 33.434-5.257 59.089-34.258 59.089-69.145 0-38.082-30.573-69.136-68.46-69.961.277-10.181.768-20.834 1.45-31.214l.011-62.825c0-10 3.91-19.42 10.98-26.52 7.099-7.069 18.746-11.313 28.744-11.315-.06.016-.214.058.005 0 2.83-.78 19.37-5.155 43.14-10.185 2.61-.56 4.86-2.1 6.31-4.34 1.46-2.23 1.96-4.91 1.4-7.52-.97-4.59-5.08-7.93-9.77-7.93-.7 0-1.4.07-2.08.22-23.16 4.9-38.5 8.98-42.64 10.11-15.06.36-29.16 6.5-39.71 17.29-10.56 10.8-16.38 25.07-16.38 40.19v62.16c-.752 11.557-1.259 23.046-1.524 34.347-29.634 8.144-51.476 35.308-51.476 67.493 0 35.459 26.508 64.824 60.744 69.369.247 1.708.493 3.401.736 5.071 2.86 19.69 5.12 35.24 5.09 47.72-.05 13.14-2.21 21.86-7.47 30.09-5.28 8.189-13.18 15.62-23.49 22.1-15.08 9.51-32.59 15.17-44.62 18.25-6.88 1.771-12.73 2.9-16.42 3.53-2.12.37-5.49.85-5.74.88-7.88.17-15.25 3.37-20.76 9-5.53 5.64-8.57 13.09-8.57 20.99 0 8.01 3.12 15.55 8.79 21.21 5.66 5.67 13.19 8.79 21.21 8.79h155c9.35 0 18.14-3.641 24.75-10.25 6.61-6.61 10.25-15.4 10.25-24.75-.01-7.17-1.52-13.71-2.84-18.61-1.18-4.39-4.37-13.93-4.67-14.84-3.12-9.59-4.64-20.06-4.65-32.02-.08-27.371 8.3-61.51 18.9-104.74 1.38-5.639 2.795-11.407 4.231-17.319l25.432 18.166c1.76 1.257 3.792 1.864 5.805 1.863 3.043 0 6.046-1.385 8.008-4l8.81-11.746 16.943 13.555c4.312 3.45 10.605 2.75 14.056-1.562 3.45-4.312 2.751-10.605-1.562-14.056l-25-20c-2.113-1.691-4.824-2.453-7.506-2.112-2.685.341-5.117 1.755-6.741 3.92l-9.138 12.184-20.05-14.321c-1.357-.969-2.874-1.544-4.419-1.761 2.33-11.358 3.734-22.631 4.224-33.683l16.245-11.604 9.138 12.184c1.624 2.165 4.056 3.58 6.741 3.92 2.682.34 5.393-.421 7.506-2.112l25-20c4.312-3.45 5.012-9.743 1.562-14.056-3.45-4.312-9.743-5.012-14.056-1.562l-16.943 13.555-8.81-11.746c-3.26-4.346-9.391-5.296-13.812-2.137l-13.002 9.287c-1.843-22.138-7.307-39.22-12.041-50.38 3.42.59 23.49 5.42 30.2 7.24 14.53 3.92 30.99 8.37 51.46 11.9 23.77 4.1 48.11 6.09 74.42 6.09h.43c13.31 0 27.39-.51 41.83-1.52 5.22-.37 9.3-4.75 9.3-9.98v-164.997c-.001-2.63-1.071-5.21-2.931-7.07zm-351.569 252.07c0-27.57 22.43-50 50-50s50 22.43 50 50-22.43 50-50 50-50-22.43-50-50z"/><path d="m218.001 255c0-16.542-13.458-30-30-30s-30 13.458-30 30 13.458 30 30 30 30-13.458 30-30zm-40 0c0-5.514 4.486-10 10-10s10 4.486 10 10-4.486 10-10 10-10-4.486-10-10z"/><path d="m91.795 216.138c4.8 0 9.037-3.466 9.852-8.357.908-5.448-2.772-10.6-8.22-11.508l-24.304-4.051 2.154-15.077c.381-2.669-.331-5.379-1.976-7.515s-4.083-3.518-6.761-3.831l-31.877-3.731c-5.481-.648-10.453 3.284-11.095 8.77-.642 5.485 3.284 10.453 8.77 11.095l21.689 2.539-2.085 14.595c-.769 5.377 2.897 10.385 8.255 11.278l33.942 5.655c.557.093 1.11.138 1.656.138z"/><path d="m86.087 142.187c.299 2.689 1.675 5.144 3.814 6.801 2.14 1.658 4.858 2.378 7.539 1.994l15.077-2.153 4.051 24.304c.815 4.891 5.051 8.358 9.852 8.357.546 0 1.1-.045 1.656-.138 5.448-.908 9.128-6.06 8.22-11.508l-5.657-33.941c-.893-5.358-5.902-9.021-11.278-8.255l-14.536 2.076-2.396-21.565c-.61-5.489-5.557-9.445-11.043-8.834-5.489.61-9.444 5.554-8.834 11.043z"/><circle cx="316.042" cy="24.78" r="10"/></g></svg>