<?xml version="1.0" encoding="UTF-8"?>
<svg id="Capa_1" xmlns="http://www.w3.org/2000/svg" version="1.1" viewBox="0 0 512 512">
  <!-- Generator: Adobe Illustrator 29.2.1, SVG Export Plug-In . SVG Version: 2.1.0 Build 116)  -->
  <path d="M438,64H74C33.2,64,0,97.2,0,138v236c0,40.8,33.2,74,74,74h39.7c5.5,0,10-4.5,10-10s-4.5-10-10-10h-39.7c-12.4,0-23.8-4.2-32.9-11.2l157.6-157.6,21.9,21.9c9.9,9.9,22.9,14.8,35.9,14.8s26-4.9,35.9-14.8l21-21,157.1,157.1c-9,6.8-20.2,10.8-32.4,10.8h-244.3c-5.5,0-10,4.5-10,10s4.5,10,10,10h244.3c40.8,0,74-33.2,74-74v-236c0-40.8-33.2-74-74-74ZM27.7,401.8c-4.9-8.1-7.7-17.6-7.7-27.8v-236c0-15.8,6.8-30,17.6-39.8l146.9,146.9L27.7,401.8ZM278.2,267c-12,12-31.5,12-43.5,0L55.1,87.4c5.9-2.2,12.2-3.4,18.9-3.4h364c6.9,0,13.5,1.3,19.5,3.7l-38.3,38.3c-.6-.1-1.2-.2-1.8-.2h-146.4c-5.5,0-10,4.5-10,10s4.5,10,10,10h128.3l-121.1,121.1ZM492,374c0,10.4-3,20.1-8.1,28.4l-156.4-156.4,147.4-147.4c10.5,9.9,17.1,23.9,17.1,39.4v236Z"/>
  <path d="M153.7,428c-2.6,0-5.2,1.1-7.1,2.9-1.9,1.9-2.9,4.4-2.9,7.1s1.1,5.2,2.9,7.1c1.9,1.9,4.4,2.9,7.1,2.9s5.2-1.1,7.1-2.9,2.9-4.4,2.9-7.1-1.1-5.2-2.9-7.1c-1.9-1.9-4.4-2.9-7.1-2.9Z"/>
  <path d="M229.1,125.8c-2.6,0-5.2,1.1-7.1,2.9s-2.9,4.4-2.9,7.1,1.1,5.2,2.9,7.1c1.9,1.9,4.4,2.9,7.1,2.9s5.2-1.1,7.1-2.9c1.9-1.9,2.9-4.4,2.9-7.1s-1.1-5.2-2.9-7.1c-1.9-1.9-4.4-2.9-7.1-2.9Z"/>
</svg>