<svg height="512pt" viewBox="0 0 512 512" width="512pt" xmlns="http://www.w3.org/2000/svg"><path d="m256 429c-5.519531 0-10 4.480469-10 10s4.480469 10 10 10 10-4.480469 10-10-4.480469-10-10-10zm0 0"/><path d="m510.945312 311.527344-74.472656-148.9375c-5.113281-10.234375-15.394531-16.589844-26.832031-16.589844h-103.640625v-26h30c3.84375 0 7.347656-2.203125 9.011719-5.667969 1.667969-3.464843 1.199219-7.578125-1.203125-10.578125l-80-100c-1.898438-2.371094-4.769532-3.753906-7.808594-3.753906s-5.910156 1.382812-7.808594 3.753906l-80 100c-2.402344 3-2.871094 7.113282-1.207031 10.578125 1.667969 3.464844 5.171875 5.667969 9.015625 5.667969h30v26h-103.640625c-11.4375 0-21.71875 6.355469-26.832031 16.589844l-74.472656 148.9375c-.640626 1.28125-1.054688 2.921875-1.054688 4.472656v166c0 16.542969 13.457031 30 30 30h452c16.542969 0 30-13.457031 30-30v-166c0-1.5625-.417969-3.195312-1.054688-4.472656zm-314.140624-211.527344 59.195312-73.992188 59.195312 73.992188h-19.195312c-5.523438 0-10 4.476562-10 10v176h-60v-176c0-5.523438-4.476562-10-10-10zm-103.390626 71.53125c1.707032-3.410156 5.136719-5.53125 8.945313-5.53125h103.640625v130c0 5.523438 4.476562 10 10 10h80c5.523438 0 10-4.476562 10-10v-130h103.640625c3.8125 0 7.238281 2.121094 8.945313 5.53125l67.234374 134.46875h-149.820312c-5.523438 0-10 4.476562-10 10v50h-140v-50c0-5.523438-4.476562-10-10-10h-149.820312zm388.585938 320.46875h-452c-5.515625 0-10-4.484375-10-10v-33h196c5.523438 0 10-4.476562 10-10s-4.476562-10-10-10h-196v-103h146v50c0 5.523438 4.476562 10 10 10h160c5.523438 0 10-4.476562 10-10v-50h146v103h-196c-5.523438 0-10 4.476562-10 10s4.476562 10 10 10h196v33c0 5.515625-4.484375 10-10 10zm0 0"/></svg>