<?xml version="1.0" encoding="UTF-8"?>
<svg id="Capa_1" xmlns="http://www.w3.org/2000/svg" xmlns:xlink="http://www.w3.org/1999/xlink" version="1.1" viewBox="0 0 512 512">
  <!-- Generator: Adobe Illustrator 29.3.1, SVG Export Plug-In . SVG Version: 2.1.0 Build 151)  -->
  <path d="M508.8,260.3L262.8,29.8c-3.9-3.6-9.8-3.6-13.7,0L3.2,260.3c-3,2.8-4,7.2-2.5,11,1.5,3.8,5.2,6.3,9.3,6.3h59.9v197.3c0,5.5,4.5,10,10,10h352.1c5.5,0,10-4.5,10-10v-197.3h59.9c4.1,0,7.8-2.5,9.3-6.3,1.5-3.8.5-8.2-2.5-11ZM337,464.9h-162.1v-187.1h162.1v187.1ZM432.1,257.5c-5.5,0-10,4.5-10,10v197.3h-65v-197.1c0-5.5-4.5-10-10-10h-182.1c-5.5,0-10,4.5-10,10v197.1h-65v-197.3c0-5.5-4.5-10-10-10h-44.6L256,50.8l220.7,206.7h-44.6Z"/>
  <path d="M342.2,175.6c1.9,1.8,4.4,2.7,6.9,2.7s5.3-1.1,7.3-3.1c3.8-4,3.6-10.4-.4-14.2l-53.2-50.2c-4-3.8-10.4-3.6-14.2.4-3.8,4-3.6,10.4.4,14.2l53.2,50.2Z"/>
  <path d="M376.7,204.3c12.9,0,12.9-20,0-20s-12.9,20,0,20Z"/>
</svg>