<?xml version="1.0" encoding="UTF-8"?>
<svg id="Capa_1" xmlns="http://www.w3.org/2000/svg" version="1.1" viewBox="0 0 1411 207.8">
  <!-- Generator: Adobe Illustrator 29.3.1, SVG Export Plug-In . SVG Version: 2.1.0 Build 151)  -->
  <defs>
    <style>
      .st0 {
        fill: #00aeea;
      }

      .st1 {
        fill: #007bc4;
      }
    </style>
  </defs>
  <path class="st0" d="M191.5,55.6c0-18.1-13.2-32.5-31.3-35.1H53.4c-6,0-11.9,1.3-17.1,4.1-11.4,6.1-18.6,17.7-18.7,31.7-.1,33.7-.1,67.4,0,101.1,0,21,4.9,37,36.8,37h100.4c28.9,0,36.7-16,36.8-37,.1-33.9.1-67.9,0-101.8h0ZM164.6,127.4h-45.2l-4.7,44.2h-39.4l4.5-44.2h-42.5l3.7-39h45.3c0-.1,5.9-44.4,5.9-44.4h38.9l-5.1,44.4h43.7l-5,39h0Z"/>
  <path class="st1" d="M748,74.2c-21-7.8-46.5,2.4-61.2,19.2-15.8,18.1-24.3,38.4-22.5,61.8,1.5,18.4,8.8,35.8,43.4,35.8s50-14.4,50-14.4l3.7-23s-27.2,21.2-54.2,16c-15.2-2.9-13.9-21.7-13.9-21.7,0,0,16.7-.7,23.9-2.5,13.6-3.5,27-12.5,36.1-24.3,9.9-12.8,15-39.4-5.3-47h0ZM729.3,115c-12.2,15.1-33.2,13-33.2,13,0,0,3.7-31.5,27-34.5,15.6-2.1,11.4,15.2,6.2,21.5Z"/>
  <path class="st1" d="M645.4,74.2l2.9-23.1-30,3-3.4,20.1h-16.3l-3.6,19.2h16s-8.2,45.7-11,60c-2.1,10.7-6,35.3,24.1,36.6,13.1.6,23-2.9,23-2.9l3.7-19s-22.5,6.2-21.1-7.6c1.1-11.5,10.8-67,10.8-67h22.7l3.2-19.2h-21.1,0Z"/>
  <path class="st1" d="M867.8,76.4c-24.1-9.4-52.5-3.2-69,11.6-19.9,17.9-30.6,43.2-29.1,69,.8,14.8,10,31.9,36.8,34.1s45.1-11.4,45.1-11.4l3.4-23s-20.6,14.2-40.4,11.2c-13.1-2-15.2-13-13.4-28.7,1.6-13.8,4.5-32.1,23.9-44.2,15.1-9.4,38.8,3.5,38.8,3.5l3.8-22h0Z"/>
  <path class="st1" d="M447.9,72.1c-28.2-1.5-52.2,45.6-52.2,45.6,0,0,4.1-17.4,4.3-23,.5-15.7-7.3-22.5-20.5-22.5-25.9,0-50.1,44.2-50.1,44.2l6.7-41.8h-27l-21.8,114.1h28.2s4.2-23.6,5.5-32.5c1.7-11.3,17-31.9,29.9-46.7,3.6-4.1,9.9-11.2,15.7-8.2,7.6,3.9-13.5,87.4-13.5,87.4h27.7s4.7-28.1,7.8-38.2c2.7-8.8,17.8-32.1,31.5-44,2.5-2.2,7.7-7.1,11.5-5.1,3.9,2.1,4,6.2,3.4,9.9-.9,5.9-15,77.4-15,77.4h28.1s17.8-83.7,16.6-97.5c-.9-10-6.7-18.5-16.7-19h0Z"/>
  <path class="st1" d="M588.4,74.2s-34.8-1.8-50-.2c-14.4,1.5-25.1,6.4-35.5,16.3-21.2,20.3-32.9,52.1-30,79.8,1.4,13.5,10.6,21,21.8,21,9.6,0,18.6-4.3,29.5-15.4,12.2-12.5,21.7-31.9,21.7-31.9l-7.7,44.9h30.6l19.6-114.5h0ZM554.7,98.7c0,8.3-2.8,20.9-24.3,46.4-3.4,4-32.2,33.9-28.2,5.5,2.3-19.1,12.8-41.5,23.8-51.4,9.9-8.8,28.7-8.8,28.7-.5h0Z"/>
  <path class="st0" d="M1093.2,74.2s-34.8-1.8-50-.2c-14.4,1.5-25.1,6.4-35.5,16.3-21.2,20.3-32.9,52.1-30,79.8,1.4,13.5,10.6,21,21.8,21,9.6,0,18.6-4.3,29.5-15.4,12.2-12.5,21.7-31.9,21.7-31.9l-7.7,44.9h30.6l19.6-114.5h0ZM1059.6,98.7c0,8.3-2.8,20.9-24.3,46.4-3.4,4-32.2,33.9-28.2,5.5,2.3-19.1,12.8-41.5,23.8-51.4,9.9-8.8,28.7-8.8,28.7-.5h0Z"/>
  <polygon class="st1" points="259.9 35.3 230.9 188.7 261.9 188.7 290.2 35.3 259.9 35.3"/>
  <polygon class="st0" points="1127.2 23.8 1095.7 188.7 1126.7 188.7 1157.5 23.8 1127.2 23.8"/>
  <path class="st0" d="M1369.2,23.9l-9.4,49.5h-.3c-8,0-16,0-21.5.6-14.4,1.5-25.1,6.4-35.5,16.3-21.2,20.3-32.9,52.1-30,79.8,1.4,13.5,10.6,21,21.8,21,9.6,0,18.6-4.3,29.5-15.4,12.2-12.5,21.7-31.9,21.7-31.9l-7.7,44.9h0,0c0,.1,31,.1,31,.1l30.8-164.9h-30.3ZM1329.9,145.1c-3.4,4-32.2,33.9-28.2,5.5,2.3-19.1,12.8-41.5,23.8-51.4,9.9-8.8,28.7-8.8,28.7-.5s-2.8,20.9-24.3,46.4h0Z"/>
  <path class="st0" d="M1234.5,74.2l-6.9,36.1c-.3,1.8-1,3.6-1.9,5.2-1.9,3.3-5.3,9.1-7.8,12.9-3.2,4.9-21.5,37-30.7,33.3-1.9-.8-2-4.4-1.5-7l15.7-80.5h-28.9s-15,69.7-15.8,75.4c-2.6,17.8-6.6,40.8,18.1,41s46.7-47.9,46.7-47.9l-8.7,46h30.5l21.2-114.5h-30Z"/>
  <path class="st0" d="M981.5,37.7c-19.5-7.8-50.7-9.8-66.9-2.4-15.6,7.1-27.1,18.6-29.8,36.1-2.9,18.6,4.5,33.2,24.6,46.2,39.7,25.8,24.1,54.2-2,53.4-23.9-.7-38.8-9.5-38.8-9.5l-5.3,25.4s59.1,17.4,87.1-8.8c6.9-6.5,16.9-19,17.8-31.1,1.2-17-10.2-34.7-25.8-45.4-5.6-3.8-11.1-7.8-16.3-12-5.7-4.6-11.4-12.8-9.8-20.9,1.6-8.6,7.8-14.2,15.6-15.6,18.6-3.3,35.4,5.2,44.9,7.6l4.8-23h0Z"/>
</svg>