<?xml version="1.0" encoding="UTF-8"?>
<svg id="svg519" xmlns="http://www.w3.org/2000/svg" xmlns:svg="http://www.w3.org/2000/svg" version="1.1" viewBox="0 0 682.7 682.7">
  <!-- Generator: Adobe Illustrator 29.2.1, SVG Export Plug-In . SVG Version: 2.1.0 Build 116)  -->
  <circle cx="616" cy="528" r="13.3"/>
  <path d="M642.7,88h-40v-13.3c0-10.7-4.2-20.7-11.7-28.3-7.6-7.6-17.6-11.7-28.3-11.7-22.1,0-40,17.9-40,40v13.3h-141.3v-13.3c0-10.7-4.2-20.7-11.7-28.3-7.6-7.6-17.6-11.7-28.3-11.7-22.1,0-40,17.9-40,40v13.3h-141.3v-13.3c0-10.7-4.2-20.7-11.7-28.3-7.6-7.6-17.6-11.7-28.3-11.7-22.1,0-40,17.9-40,40v13.3h-40C17.9,88,0,105.9,0,128v480c0,22.1,17.9,40,40,40h602.7c22.1,0,40-17.9,40-40V128c0-22.1-17.9-40-40-40ZM549.3,74.7c0-7.4,6-13.3,13.3-13.3s6.9,1.4,9.4,3.9c2.5,2.5,3.9,5.9,3.9,9.4v69c-3.9-1.3-8.4-2.3-13.3-2.3s-9.4,1-13.3,2.3v-69ZM328,74.7c0-7.4,6-13.3,13.3-13.3s6.9,1.4,9.4,3.9c2.5,2.5,3.9,5.9,3.9,9.4v69c-3.9-1.3-8.4-2.3-13.3-2.3s-9.4,1-13.3,2.3v-69ZM106.7,74.7c0-7.4,6-13.3,13.3-13.3s6.9,1.4,9.4,3.9c2.5,2.5,3.9,5.9,3.9,9.4v69c-3.9-1.3-8.4-2.3-13.3-2.3s-9.4,1-13.3,2.3v-69ZM40,114.7h40v40c0,8,2.6,13.8,7.8,17.2,7.9,5.2,15.9,1.8,21.8-.8,3.4-1.5,7.3-3.1,10.4-3.1s7,1.6,10.4,3.1c3.6,1.6,8.1,3.5,12.9,3.5s6-.7,9-2.7c5.2-3.4,7.8-9.2,7.8-17.2v-40h141.3v40c0,8,2.6,13.8,7.8,17.2,7.9,5.2,15.9,1.8,21.8-.8,3.4-1.5,7.3-3.1,10.4-3.1s7,1.6,10.4,3.1c3.6,1.6,8.1,3.5,12.9,3.5s6-.7,9-2.7c5.2-3.4,7.8-9.2,7.8-17.2v-40h141.3v40c0,8,2.6,13.8,7.8,17.2,7.9,5.2,15.9,1.8,21.8-.8,3.4-1.5,7.3-3.1,10.4-3.1s7,1.6,10.4,3.1c3.6,1.6,8.1,3.5,12.9,3.5s6-.7,9-2.7c5.2-3.4,7.8-9.2,7.8-17.2v-40h40c7.4,0,13.3,6,13.3,13.3v66.7H26.7v-66.7c0-7.4,6-13.3,13.3-13.3ZM642.7,621.3H40c-7.4,0-13.3-6-13.3-13.3V221.3h629.3v386.7c0,7.4-6,13.3-13.3,13.3Z"/>
  <path d="M398.6,371.9l-70.6,70.6-30.6-30.6c-5.2-5.2-13.6-5.2-18.9,0s-5.2,13.6,0,18.9l40,40c2.6,2.6,6,3.9,9.4,3.9s6.8-1.3,9.4-3.9l80-80c5.2-5.2,5.2-13.6,0-18.9s-13.6-5.2-18.9,0Z"/>
  <path d="M341.3,261.3c-88.2,0-160,71.8-160,160s71.8,160,160,160,160-71.8,160-160-71.8-160-160-160ZM341.3,554.7c-73.5,0-133.3-59.8-133.3-133.3s59.8-133.3,133.3-133.3,133.3,59.8,133.3,133.3-59.8,133.3-133.3,133.3Z"/>
  <path d="M616,488c7.4,0,13.3-6,13.3-13.3v-186.7c0-7.4-6-13.3-13.3-13.3s-13.3,6-13.3,13.3v186.7c0,7.4,6,13.3,13.3,13.3Z"/>
</svg>