<?xml version="1.0" encoding="UTF-8"?>
<svg id="Capa_1" xmlns="http://www.w3.org/2000/svg" xmlns:xlink="http://www.w3.org/1999/xlink" version="1.1" viewBox="0 0 512 512">
  <!-- Generator: Adobe Illustrator 29.2.1, SVG Export Plug-In . SVG Version: 2.1.0 Build 116)  -->
  <path d="M471.9,89.8H40.1C18,89.8,0,107.8,0,129.9v252.2c0,22.1,18,40.1,40.1,40.1h231.2c5.5,0,10-4.5,10-10s-4.5-10-10-10H40.1c-11,0-20-9-20-20v-252.2c0-11,9-20,20-20h431.8c11,0,20,9,20,20v252.2c0,11-9,20-20,20h-110.8c-5.5,0-10,4.5-10,10s4.5,10,10,10h110.8c22.1,0,40.1-18,40.1-40.1v-252.2c0-22.1-18-40.1-40.1-40.1Z"/>
  <path d="M67.1,359.5h149.7c11,0,20-9,20-20v-1.6s0,0,0,0v-9.7s0,0,0,0v-162.5c0-11-9-20-20-20H67.1c-11,0-20,9-20,20v162.4c0,0,0,.1,0,.2v9.7s0,0,0,0v1.5c0,11,9,20,20,20ZM216.8,339.5H67.1v-11.5c.1-19.1,15.7-34.6,34.8-34.6h80.1c19.2,0,34.8,15.6,34.8,34.8v9.7c0,0,0,.1,0,.2v1.4s0,0,0,0ZM112.9,244.3c0-16,13-29,29-29s29,13,29,29-13,29-29,29-29-13-29-29ZM216.8,165.6v120.2c-9.5-7.8-21.6-12.5-34.8-12.5h-.5c6-8.1,9.6-18.2,9.6-29,0-27.1-22-49.1-49.1-49.1s-49.1,22-49.1,49.1,3.6,20.9,9.6,29h-.5c-13.2,0-25.3,4.7-34.8,12.5v-120.2h149.7Z"/>
  <path d="M285.6,213.3h163.7c5.5,0,10-4.5,10-10s-4.5-10-10-10h-163.7c-5.5,0-10,4.5-10,10s4.5,10,10,10Z"/>
  <path d="M285.6,266h163.7c5.5,0,10-4.5,10-10s-4.5-10-10-10h-163.7c-5.5,0-10,4.5-10,10s4.5,10,10,10Z"/>
  <path d="M460.5,308.7c0-5.5-4.5-10-10-10h-114c-5.5,0-10,4.5-10,10s4.5,10,10,10h114c5.5,0,10-4.5,10-10Z"/>
  <path d="M321.8,403.8c-.5-.4-1.1-.7-1.7-.9-.6-.2-1.2-.4-1.9-.6-3.2-.7-6.7.4-9,2.7-1.9,1.9-2.9,4.5-2.9,7.1s0,1.3.2,2,.3,1.3.6,1.9c.2.6.6,1.2.9,1.7.4.5.8,1.1,1.2,1.5,1.9,1.9,4.5,2.9,7.1,2.9s1.3,0,2-.2c.6-.1,1.3-.3,1.9-.6.6-.2,1.2-.6,1.7-.9.5-.4,1.1-.8,1.5-1.2.5-.5.9-1,1.2-1.5.4-.6.7-1.1.9-1.7.2-.6.4-1.2.6-1.9s.2-1.3.2-2c0-2.6-1.1-5.2-2.9-7.1-.5-.5-1-.9-1.5-1.2Z"/>
</svg>