<?xml version="1.0" encoding="UTF-8"?>
<svg id="Capa_1" xmlns="http://www.w3.org/2000/svg" version="1.1" viewBox="0 0 512 512">
  <!-- Generator: Adobe Illustrator 29.3.1, SVG Export Plug-In . SVG Version: 2.1.0 Build 151)  -->
  <g>
    <path d="M496.9,361.1h15.1v15.1h-15.1v-15.1Z"/>
    <path d="M0,75.4v361.2h512v-45.4h-15.1v30.4H15.1V90.4h173.1v14.9H30.2v271h451.7V105.4h-158.1v-14.9h173.2v255.6h15.1V75.4H0ZM45.2,120.4h30.3l18.8,41.2c-3.5,4.7-6.7,9.8-9.6,15.1l13.2,7.2c7.9-14.4,18.1-26.4,29.6-34.9l-9-12.1c-4.7,3.5-9.2,7.5-13.5,11.9l-12.9-28.4h328.8l-13.3,29.1c-4.4-4.7-9.2-8.9-14.2-12.6l-9,12.1c67.1,49.4,59.9,174.5-38.2,176.1-74.2-.2-102.6-80.7-68.4-140l-13.3-7.1c-3.4,6.4-6.3,13.1-8.7,19.8-2.4-6.8-5.3-13.5-8.7-19.8l-13.3,7.1c34.2,59.3,5.8,139.8-68.4,140-65.8,1-100.2-69.2-74.5-126.7l-14-5.5c-18.5,44.1-10,99.1,28.8,127.6l5.8,40.8H45.2V120.4ZM390.4,330.1l-4.5,31.2H126.9l-4.4-30.6c48.5,24.2,114.1,1.1,133.4-50.1,19.5,51.6,85.9,74.6,134.5,49.6h0ZM466.9,361.3h-65.7l6-41.7c48.5-36.3,45.8-111.3,11.2-157.2l19.2-42h29.4v240.8ZM308.7,105.4h-105.6v-14.9h105.6v14.9Z"/>
    <path d="M338.8,293v15.4h15.1v-15.4c23-3.3,41.3-21.5,44.6-44.5h15.3v-15.1h-15.3c-1.2-8.3-4.3-16.1-9.1-23l-12.3,8.7c17.7,23.8-1,60.2-30.8,59.4-20.8,0-37.6-16.9-37.6-37.6-.8-29.4,34.8-48.2,58.7-31.2l8.4-12.5c-6.6-4.5-14.1-7.3-21.9-8.5v-15.1h-15.1v15.1c-23.1,3.3-41.4,21.7-44.7,44.8h-15.3v15.1h15.3c3.4,23,21.6,41.2,44.6,44.5Z"/>
    <path d="M421.6,392h45.2v15.1h-45.2v-15.1Z"/>
    <path d="M391.5,392h15.1v15.1h-15.1v-15.1Z"/>
    <path d="M361.4,392h15.1v15.1h-15.1v-15.1Z"/>
  </g>
  <path d="M45.1,392h15.1v15.1h-15.1v-15.1Z"/>
  <path d="M75.2,392h15.1v15.1h-15.1v-15.1Z"/>
</svg>