<?xml version="1.0" standalone="no"?>
<!DOCTYPE svg PUBLIC "-//W3C//DTD SVG 20010904//EN"
 "http://www.w3.org/TR/2001/REC-SVG-20010904/DTD/svg10.dtd">
<svg version="1.0" xmlns="http://www.w3.org/2000/svg"
 width="1024.000000pt" height="1024.000000pt" viewBox="0 0 1024.000000 1024.000000"
 preserveAspectRatio="xMidYMid meet">

<g transform="translate(0.000000,1024.000000) scale(0.100000,-0.100000)"
fill="#000000" stroke="none">
<path d="M3595 8510 c-734 -75 -1396 -453 -1856 -1062 -246 -327 -424 -736
-504 -1157 -51 -268 -48 -150 -52 -2266 -3 -1481 -1 -1976 8 -1997 6 -16 25
-40 41 -53 l30 -25 3405 2 3405 3 34 38 35 38 -3 237 c-3 222 -4 240 -26 287
-53 115 -126 183 -233 216 -51 16 -93 19 -270 19 l-209 0 0 500 0 499 373 3
c369 3 372 3 420 27 75 37 142 104 179 179 32 64 33 72 36 204 l4 137 326 3
c310 3 329 4 374 25 63 29 134 96 166 158 26 48 27 57 30 237 3 151 0 198 -13
244 -19 68 -80 138 -145 168 -45 21 -53 21 -1121 24 l-1076 2 -6 283 c-4 155
-13 352 -22 437 -67 675 -272 1302 -575 1763 -317 483 -715 763 -1160 816
-111 13 -1478 23 -1595 11z m648 -216 l106 -7 -67 -47 c-311 -219 -631 -632
-827 -1070 -224 -498 -350 -1043 -386 -1660 -14 -246 -6 -710 16 -920 78 -738
326 -1418 705 -1932 94 -127 288 -329 397 -415 46 -36 83 -67 83 -69 0 -2
-648 -4 -1440 -4 l-1441 0 4 1897 3 1898 22 140 c99 616 323 1076 715 1469
414 415 924 660 1492 715 102 10 480 13 618 5z m1092 -54 c195 -52 388 -173
570 -355 351 -352 609 -888 746 -1553 48 -235 80 -560 94 -960 l7 -172 -294 2
-293 3 -7 190 c-24 697 -220 1263 -543 1574 -144 138 -276 200 -450 208 -288
14 -521 -130 -740 -459 -60 -89 -148 -253 -190 -353 -29 -69 -105 -296 -126
-379 -26 -102 -65 -314 -81 -446 -20 -163 -17 -666 5 -805 53 -330 153 -634
294 -890 74 -135 132 -215 222 -308 170 -176 340 -247 560 -234 243 14 447
148 618 405 l55 82 194 0 194 0 0 -499 0 -500 -212 -3 c-264 -4 -296 -14 -399
-118 -88 -87 -109 -149 -109 -316 l0 -113 -30 -16 c-69 -36 -160 -49 -355 -49
-207 -1 -294 10 -410 51 -176 63 -323 163 -482 326 -461 474 -758 1159 -875
2021 -20 143 -22 205 -23 566 0 263 5 449 13 530 96 929 406 1699 874 2171
227 230 463 366 715 414 115 21 352 14 458 -15z m-104 -1296 c193 -57 356
-227 494 -516 142 -299 225 -706 225 -1105 l0 -123 -865 0 -865 0 0 70 c0 167
52 512 106 698 120 416 324 759 540 908 111 76 249 102 365 68z m3803 -1974
c51 -19 66 -62 66 -193 0 -126 -10 -162 -52 -191 -20 -14 -261 -16 -2395 -16
-2250 0 -2372 1 -2377 18 -14 51 -56 330 -56 378 0 12 310 14 2394 14 1532 0
2404 -4 2420 -10z m-846 -754 c-3 -139 -13 -162 -78 -197 -33 -18 -102 -19
-1831 -19 l-1796 0 -41 88 c-38 82 -102 237 -102 247 0 3 867 5 1926 5 l1926
0 -4 -124z m-2748 -520 c-127 -124 -212 -168 -337 -174 -163 -9 -267 34 -400
163 -46 44 -83 86 -83 93 0 9 98 12 458 12 l457 -1 -95 -93z m1745 -406 l0
-495 -397 -3 -398 -2 -2 496 c-2 272 -1 498 1 500 3 2 183 3 400 2 l396 -3 0
-495z m606 -730 c59 -11 103 -45 125 -97 10 -22 14 -74 14 -163 l0 -130 -1133
0 -1132 0 3 118 c3 152 8 175 38 212 31 36 57 51 104 61 57 11 1920 10 1981
-1z"/>
<path d="M5024 7701 c-87 -53 -48 -191 54 -191 101 0 148 106 78 176 -40 40
-83 45 -132 15z"/>
<path d="M4590 7578 c-36 -19 -65 -77 -56 -112 12 -47 58 -86 103 -86 96 0
147 115 79 179 -29 27 -92 37 -126 19z"/>
<path d="M4224 7191 c-44 -27 -60 -77 -41 -124 31 -72 111 -90 169 -38 28 25
33 36 33 76 0 40 -5 51 -33 76 -39 35 -82 38 -128 10z"/>
</g>
</svg>
