<?xml version="1.0" encoding="UTF-8"?>
<svg id="Capa_1" xmlns="http://www.w3.org/2000/svg" version="1.1" viewBox="0 0 512 512">
  <!-- Generator: Adobe Illustrator 29.6.0, SVG Export Plug-In . SVG Version: 2.1.1 Build 207)  -->
  <g id="_22-CT-scan">
    <path d="M494.9,346.6c4.5,0,8.2-3.7,8.2-8.2v-41.2c0-4.5-3.7-8.2-8.2-8.2h-33.6c-4.1-28.3-28.4-49.4-57-49.4h-60c-4.6,0-8.2,3.7-8.2,8.2h0c0,4.6,3.7,8.3,8.2,8.3h60c19.6,0,36.4,13.8,40.4,32.9h-188.6v-32.9h38.8c4.6,0,8.2-3.7,8.2-8.2h0c0-4.6-3.7-8.3-8.2-8.3h-14.8c-5.6-79.1-51.2-140-106.4-140h-57.7c-37.2,0-70.1,27.9-89.3,70.1-1,4.8,1.5,11.4,7.4,11.4h0c3.2,0,6.1-1.9,7.4-4.8,16.4-36.4,43.6-60.2,74.4-60.2h10.1c-35.2,25.6-59.5,78.7-59.5,140-.2,28.3,5.3,56.3,16.2,82.4h-39.9c-11.8-25.8-17.8-54-17.5-82.4,0-12.2,2.2-24,2.9-35.4s-3-9.6-8.1-9.6h0c-4,0-7.4,2.9-8.1,6.8-2.1,12.3-3.2,25.1-3.2,38.2,0,61.3,24.3,114.4,59.5,140H8.9v16.5h494.2v-16.5h-107.1v-49.4h98.9ZM173.6,116c46.2,0,84.7,53.6,89.9,123.6h-16c-6.6-8.9-16.6-14.7-27.7-16.1-7.1-35.5-25-58.1-46.3-58.1s-49.4,39.8-49.4,90.6,2.3,31.9,7.1,47.2l-32.2,32.2c-10.8-25.1-16.3-52.1-16-79.4,0-77.2,40.6-140,90.6-140h0ZM182,288.9h-8.4c-4.5,0-8.2,3.7-8.2,8.2v30.2c-12.8-8.3-24.7-35.3-24.7-71.4s17.4-74.1,32.9-74.1,24.1,17.5,29.7,42.8c.2,0,.5,0,.7-.2-18,4.8-30.5,21.1-30.5,39.7s2.9,17.6,8.4,24.7h.1ZM190.5,260.2c1.9-11.4,11.4-20,23-20.6h1.4c13.6,0,24.7,11.1,24.7,24.7s-11.1,24.7-24.7,24.7-2.7-.1-4-.4c-13.4-2.2-22.5-14.9-20.3-28.3h0ZM116,396c-25,0-47.7-15.8-64.1-41.2h38.8c8.7,16.1,20.8,30.2,35.4,41.2h-10.1ZM107.1,350.7l31.1-31.1c8.9,16.7,21.5,27,35.5,27h68.9c-17.2,31.2-42.3,49.4-68.9,49.4s-50-17.6-66.6-45.3h0ZM280.7,396h-59.1c17-13,30.5-30,39.4-49.4h19.7v49.4ZM379.6,396h-82.4v-49.4h82.4v49.4ZM181.9,330.1v-24.7h304.8v24.7H181.9Z"/>
  </g>
  <g id="g2885">
    <g id="path2887">
      <path d="M319.5,255.4c-4.2,0-7.5-3.4-7.5-7.5h0c0-4.3,3.4-7.7,7.5-7.7s7.5,3.4,7.5,7.5h0c0,4.3-3.4,7.7-7.5,7.7Z"/>
    </g>
  </g>
  <g id="g28851">
    <g id="path28871">
      <path d="M26.3,203.6c-4.2,0-7.5-3.4-7.5-7.5h0c0-4.3,3.4-7.7,7.5-7.7s7.5,3.4,7.5,7.5h0c0,4.3-3.4,7.7-7.5,7.7Z"/>
    </g>
  </g>
</svg>