<?xml version="1.0" encoding="UTF-8"?>
<svg id="Capa_1" xmlns="http://www.w3.org/2000/svg" xmlns:xlink="http://www.w3.org/1999/xlink" version="1.1" viewBox="0 0 512 512">
  <!-- Generator: Adobe Illustrator 29.2.1, SVG Export Plug-In . SVG Version: 2.1.0 Build 116)  -->
  <path d="M256,252c-5.5,0-10,4.5-10,10v131.3c0,5.5,4.5,10,10,10s10-4.5,10-10v-131.3c0-5.5-4.5-10-10-10Z"/>
  <path d="M182.8,305.3h44.4c5.5,0,10-4.5,10-10s-4.5-10-10-10h-44.4c-2.2,0-3.4-1.4-4-2.2s-1.3-2.5-.3-4.5c.8-1.7,2.5-2.8,4.3-2.8,5.5,0,10-4.5,10-10s-4.5-10-10-10c-9.7,0-18.5,5.7-22.5,14.6-3.5,7.7-2.8,16.5,1.8,23.6,4.6,7.1,12.3,11.3,20.8,11.3Z"/>
  <path d="M227.2,318.8h-63.8c-2.2,0-3.4-1.4-4-2.2s-1.3-2.5-.3-4.5c2.3-5,0-11-5-13.2-5-2.3-11,0-13.2,5-3.5,7.7-2.8,16.5,1.8,23.6,4.6,7.1,12.3,11.3,20.8,11.3h63.8c5.5,0,10-4.5,10-10s-4.5-10-10-10Z"/>
  <path d="M227.2,355.2h-54.1c-2.4,0-4-1.7-4.6-3.4-1.6-5.3-7.1-8.3-12.4-6.7s-8.3,7.1-6.7,12.4c3.1,10.6,12.7,17.7,23.7,17.7h54.1c5.5,0,10-4.5,10-10s-4.5-10-10-10Z"/>
  <path d="M227.2,252.8h-17.5c-5.5,0-10,4.5-10,10s4.5,10,10,10h17.5c5.5,0,10-4.5,10-10s-4.5-10-10-10Z"/>
  <path d="M285.5,305.3h44.4c8.4,0,16.2-4.2,20.8-11.3,4.6-7.1,5.2-15.9,1.8-23.6-4-8.8-12.8-14.6-22.5-14.6s-10,4.5-10,10,4.5,10,10,10,3.5,1.1,4.3,2.8c.9,2,.2,3.7-.3,4.5-.5.8-1.7,2.2-4,2.2h-44.4c-5.5,0-10,4.5-10,10s4.5,10,10,10Z"/>
  <path d="M358.6,298.9c-5,2.3-7.3,8.2-5,13.2.9,2,.2,3.7-.3,4.5-.5.8-1.7,2.2-4,2.2h-63.8c-5.5,0-10,4.5-10,10s4.5,10,10,10h63.8c8.4,0,16.2-4.2,20.8-11.3,4.6-7.1,5.2-15.9,1.8-23.6-2.3-5-8.2-7.3-13.2-5Z"/>
  <path d="M356.6,345c-5.3-1.6-10.9,1.4-12.4,6.7-.5,1.7-2.1,3.4-4.6,3.4h-54.1c-5.5,0-10,4.5-10,10s4.5,10,10,10h54.1c11,0,20.6-7.1,23.7-17.7,1.6-5.3-1.4-10.9-6.7-12.4Z"/>
  <path d="M346.6,381.4c-5.3-1.6-10.9,1.4-12.4,6.7-.5,1.7-2.1,3.4-4.6,3.4h-44.1c-5.5,0-10,4.5-10,10s4.5,10,10,10h44.1c11,0,20.6-7.1,23.7-17.7,1.6-5.3-1.4-10.9-6.7-12.4Z"/>
  <path d="M226.8,391.6h-44.1c-2.4,0-4-1.7-4.6-3.4-1.6-5.3-7.1-8.3-12.4-6.7-5.3,1.6-8.3,7.1-6.7,12.4,3.1,10.6,12.7,17.7,23.7,17.7h44.1c5.5,0,10-4.5,10-10s-4.5-10-10-10Z"/>
  <path d="M285.5,272.8h17.4c5.5,0,10-4.5,10-10s-4.5-10-10-10h-17.4c-5.5,0-10,4.5-10,10s4.5,10,10,10Z"/>
  <path d="M255.3,420.8c-4.2.3-7.7,3.2-8.9,7.2-1.2,4,.4,8.4,3.8,10.9,3.3,2.4,8,2.5,11.4.2,3.9-2.6,5.5-7.8,3.7-12.1-1.6-3.9-5.7-6.5-9.9-6.1Z"/>
  <path d="M46.8,380.9c4-1,7-4.5,7.5-8.6.5-4.2-1.8-8.3-5.5-10.1-3.8-1.9-8.5-1.1-11.5,1.9-3.3,3.3-3.8,8.7-1.2,12.6,2.3,3.5,6.7,5.2,10.7,4.1Z"/>
  <path d="M328.8,168.1h-14.9c22-17.2,36.1-44,36.1-74.1C350.1,42.2,307.9,0,256,0s-94.1,42.2-94.1,94.1,14.2,56.8,36.1,74.1h-14.8c-82,0-148.8,66.8-148.8,148.8v18.5c0,5.5,4.5,10,10,10s10-4.5,10-10v-18.5c0-71,57.8-128.8,128.8-128.8h72.5c.1,0,.2,0,.3,0s.2,0,.3,0h72.5c71,0,128.8,57.8,128.8,128.8v120.3c0,6.5-2.5,12.6-7.1,17.2-4.6,4.6-10.7,7.1-17.2,7.1s-11.2-2-15.5-5.6v-202.5c0-19.4-15.8-35.3-35.3-35.3h-253c-19.4,0-35.3,15.8-35.3,35.3v202.5c-4.3,3.6-9.9,5.6-15.5,5.6-13.4,0-24.3-10.9-24.3-24.3v-29.7c0-5.5-4.5-10-10-10s-10,4.5-10,10v29.7c0,24.4,19.9,44.3,44.3,44.3s10.6-1,15.6-2.8c1,18.5,16.4,33.3,35.2,33.3h253c18.8,0,34.2-14.8,35.2-33.3,4.9,1.9,10.2,2.8,15.6,2.8,11.8,0,22.9-4.6,31.3-13,8.4-8.4,13-19.5,13-31.3v-120.3c0-82-66.8-148.8-148.8-148.8ZM256.2,168.1h-.3c-40.8,0-73.9-33.3-73.9-74.1S215.2,20,256,20s74.1,33.2,74.1,74.1-33.1,74-73.9,74.1ZM338.4,492h-166.4v-16.3c0-8.4,6.9-15.3,15.3-15.3h32.4c4.1,0,7.9,1.6,10.8,4.5l.3.3c6.7,6.7,15.5,10.4,25,10.4h.1c9.5,0,18.4-3.8,25.1-10.6,2.9-2.9,6.8-4.6,10.9-4.6h31.1c8.4,0,15.3,6.9,15.3,15.3v16.3ZM397.8,476.7h0c0,8.4-6.8,15.3-15.3,15.3h-24.1v-16.3c0-19.5-15.8-35.3-35.3-35.3h-31.1c-9.4,0-18.6,3.9-25.2,10.6-2.9,2.9-6.7,4.6-10.9,4.6h0c-4.1,0-7.9-1.6-10.8-4.5l-.3-.3c-6.7-6.7-15.5-10.4-25-10.4h-32.4c-19.5,0-35.3,15.8-35.3,35.3v16.3h-22.5c-8.4,0-15.3-6.8-15.3-15.3v-223.3c0-8.4,6.8-15.3,15.3-15.3h253c8.4,0,15.3,6.8,15.3,15.3v223.3Z"/>
</svg>