<?xml version="1.0" encoding="UTF-8"?>
<svg id="svg1164" xmlns="http://www.w3.org/2000/svg" xmlns:svg="http://www.w3.org/2000/svg" version="1.1" viewBox="0 0 682.7 682.7">
  <!-- Generator: Adobe Illustrator 29.2.1, SVG Export Plug-In . SVG Version: 2.1.0 Build 116)  -->
  <path d="M221.3,261.3c0,66.2,53.8,120,120,120s120-53.8,120-120-53.8-120-120-120-120,53.8-120,120ZM434.7,261.3c0,51.5-41.9,93.3-93.3,93.3s-93.3-41.9-93.3-93.3,41.9-93.3,93.3-93.3,93.3,41.9,93.3,93.3Z"/>
  <circle cx="586.7" cy="122.7" r="13.3" transform="translate(248.8 617.7) rotate(-67.5)"/>
  <path d="M633.3,164.3c-3.8-6.3-12-8.3-18.3-4.5-6.3,3.8-8.3,12-4.5,18.3,29.8,49,45.5,105.5,45.5,163.2s-11.3,97.6-33.6,141.8c-17.9,35.3-42.6,67.4-72.3,93.8-9.2-43.3-31.7-82.8-64.8-113.1-39.4-36-90.5-55.8-143.9-55.8s-104.5,19.8-143.9,55.8c-33.1,30.3-55.6,69.8-64.8,113.1-29.7-26.4-54.5-58.4-72.3-93.8-22.3-44.2-33.6-91.9-33.6-141.8,0-84.1,32.7-163.2,92.1-222.6,59.4-59.4,138.4-92.1,222.6-92.1s137.4,22.8,193,66c5.8,4.5,14.2,3.5,18.7-2.4,4.5-5.8,3.5-14.2-2.4-18.7-29.3-22.8-61.8-40.5-96.7-52.6C417.8,6.4,379.9,0,341.3,0,250.1,0,164.3,35.5,99.9,99.9,35.5,164.4,0,250.1,0,341.3s12.3,105.9,36.5,153.8c22.6,44.8,55.5,84.7,95.2,115.6,1.4,1.8,3.3,3.2,5.4,4.1,59.3,44.3,129.8,67.7,204.2,67.7s147.3-24.2,207.2-70c.1-.1.3-.2.4-.3,40.6-31.1,74.2-71.6,97.2-117.2,24.2-47.9,36.5-99.7,36.5-153.8s-17.1-123.8-49.4-177ZM156.4,596c5.9-43.1,26.6-82.9,59-112.5,34.5-31.5,79.2-48.9,125.9-48.9s91.4,17.3,125.9,48.8c32.4,29.6,53.2,69.3,59.1,112.5-53.9,39.3-117.7,60-185,60s-131-20.7-184.9-60Z"/>
</svg>