<?xml version="1.0" encoding="UTF-8"?>
<svg id="Capa_1" xmlns="http://www.w3.org/2000/svg" version="1.1" viewBox="0 0 511 511">
  <!-- Generator: Adobe Illustrator 29.2.1, SVG Export Plug-In . SVG Version: 2.1.0 Build 116)  -->
  <path d="M474.9,216.5c-31.7-57.7-78.5-89.8-131.8-90.4-24.4-.3-40.9,4.6-52,11.5V57.6c0-19.7-16-35.7-35.6-35.7s-35.6,16-35.6,35.7v80.1c-11.1-7-27.5-11.9-52-11.6-18.8.2-36.9,4.3-53.8,12.2-5,2.3-7.1,8.3-4.8,13.3,2.3,5,8.3,7.1,13.3,4.8,14.3-6.7,29.7-10.2,45.6-10.4,19.5-.2,44.1,3.2,51.7,20.5v64.9l-32.3,32.2-26.6-1.4-21.9-38.4c-2.7-4.8-8.8-6.5-13.6-3.7-4.8,2.7-6.5,8.8-3.7,13.6l15.6,27.3-21.3-1.1c-5.5-.3-10.2,3.9-10.5,9.5-.3,5.5,3.9,10.2,9.4,10.5l53.6,2.8-26.3,26.2-60.3,6.9c-5.5.6-9.4,5.6-8.8,11.1.6,5.1,4.9,8.8,9.9,8.8s.8,0,1.2,0l52.1-6v32.1c0,5.5,4.5,10,10,10s10-4.5,10-10v-38.8l42-41.9c.1-.1.3-.3.4-.4l21.2-21.1v98c0,.9,0,1.9.1,2.8,0,23.3-1.2,46-8.8,61.4-12.4,25.2-59.5,46.7-107.2,49-30.8,1.5-54.1-5.8-62.6-19.4-17.4-28.2-24.8-71.3-20.1-118.2,4.7-47.4,21.2-94.1,45.3-128,3.2-4.5,2.1-10.7-2.4-13.9-4.5-3.2-10.7-2.1-13.9,2.4C24.4,230.4,6.6,280.6,1.5,331.3c-5.2,52,3,98.4,23,130.7,11.5,18.6,37.5,29,71.8,29s5.8,0,8.7-.2c25-1.2,51-7.4,73.2-17.3,17.5-7.8,40.5-21.6,50.9-42.8,5.9-11.9,8.6-26.2,9.8-41.4,4.9,2.6,10.6,4.1,16.5,4.1s11.6-1.5,16.5-4.1c1.2,15.3,4,29.5,9.8,41.4,10.4,21.2,33.4,35,50.9,42.8,22.3,10,48.3,16.1,73.2,17.3,3,.1,5.9.2,8.7.2,34.4,0,60.3-10.4,71.8-29,36.6-59.2,31.5-167-11.7-245.5ZM271.2,333.1c0,4.2,0,8.4,0,12.6,0,4.6,0,9.3,0,13.9-1,7.7-7.6,13.8-15.6,13.8s-14.6-6.1-15.6-13.8c0-4.5,0-9,0-13.5,0-4.4,0-8.7,0-12.9v-41.1h31.4v41.1ZM271.2,272.1h-31.4v-54.5h31.4v54.5ZM271.2,197.8h-31.4v-57.7h31.4v57.7ZM271.2,120.2h-31.4v-62.5c0-8.7,7-15.7,15.7-15.7s15.7,7,15.7,15.7v62.5ZM469.6,451.5c-8.4,13.6-31.8,20.9-62.6,19.4-47.7-2.3-94.8-23.8-107.2-49-7.6-15.4-8.7-38-8.8-61.3,0-1,.1-2,.1-3v-98l21.2,21.1c.1.1.3.3.4.4l42,41.9v38.8c0,5.5,4.5,10,10,10s10-4.5,10-10v-32.1l52.1,6c.4,0,.8,0,1.2,0,5,0,9.3-3.8,9.9-8.8.6-5.5-3.3-10.4-8.8-11l-60.3-6.9-26.3-26.2,53.6-2.8c5.5-.3,9.7-5,9.4-10.5-.3-5.5-5-9.7-10.5-9.5l-21.3,1.1,15.6-27.3c2.7-4.8,1.1-10.9-3.7-13.6-4.8-2.7-10.9-1.1-13.6,3.7l-21.9,38.4-26.6,1.4-32.3-32.2v-64.9c7.6-17.3,32.2-20.8,51.7-20.5,45.7.5,86.4,28.9,114.5,80.1,19.2,34.8,31,77.4,33.3,119.9,2.3,42.4-5.2,79.9-21.1,105.5Z"/>
  <path d="M84.9,179.7c2.2,0,4.4-.7,6.2-2.2h.1c4.3-3.6,5-9.8,1.6-14.1-3.4-4.3-9.7-5-14-1.6h-.1c-4.3,3.6-5,9.8-1.6,14.1,2,2.5,4.9,3.7,7.8,3.7Z"/>
</svg>