<?xml version="1.0" encoding="UTF-8"?>
<svg id="Capa_1" xmlns="http://www.w3.org/2000/svg" version="1.1" viewBox="0 0 512 512">
  <!-- Generator: Adobe Illustrator 29.2.1, SVG Export Plug-In . SVG Version: 2.1.0 Build 116)  -->
  <path d="M365.3,290.6h0c-1.8-19-7.5-37.4-16.8-55-3.3-6.3-7.2-12.5-11.5-18.6,12.4-4.3,21.7-11.2,27.6-20.7,7.8-12.4,7.4-25.8,6.3-33.3,12.5-14.9,12.1-31.1,10.7-39.5,1-1.3,2-2.9,3-4.8,2.9-5.2,6.3-13.8,6.3-25,0-7.7-1.6-15.7-4.9-23.8-1.4-3.5-4.6-5.9-8.4-6.2h0c-2-.2-11.1-.9-24.2-1.1.2-7.7-1-18.1-6.6-28.9-1.3-2.5-3.6-4.3-6.2-5-1.2-.3-27.3-7.2-65,2.1l-2.4-21.9c-.6-5.1-4.8-8.9-9.9-8.9h-73.3c-2.8,0-5.4,1.2-7.3,3.2-1.9,2-2.9,4.7-2.7,7.5,1.1,15.6-1.1,33.1-4.4,36.3-3.2,1.5-8.6,2.5-13.7,3.6-15,3.1-37.2,7.7-51,24.8-8.3,1-25.1,4.7-42,17.4-20.6,15.5-45.5,48-48.6,114.9-5.6,8.7-19.3,33.9-19.3,69.1,0,11.5,1.5,23.2,4.5,34.7,3.4,13,8.8,25.9,16,38.4,10.2,17.8,19.6,31.6,28.5,42.3,8,9.5,14.9,15.7,22,21.8,1.8,1.6,4.1,2.4,6.5,2.4s5.7-1.3,7.6-3.5c3.6-4.2,3.1-10.5-1.1-14.1-6.5-5.6-12.1-10.6-18.8-18.3,7.3-9.2,25.1-27.3,57.3-33.7,10.6-2.1,18.6-8.4,22.4-17.7,5.1-12.3,2-27.7-8.5-43.2-3.1-4.6-9.3-5.8-13.9-2.7-4.6,3.1-5.8,9.3-2.7,13.9,6.5,9.5,8.9,18.7,6.6,24.4-1.2,3-3.8,4.9-7.8,5.7-34,6.8-55,24.8-65.7,37-4.8-7-9.8-15-15.1-24.2-11.8-20.6-17.9-41.8-17.9-63.1,0-18.9,4.8-34.3,8.8-44,2.3-5.4,4.5-9.6,6-12.1.2-.3.4-.6.5-.9,80.2-18.1,89.8-52.2,95-70.7.6-2.2,1.4-5.1,2.1-6.4.1,0,.3,0,.5,0,1.2,0,3.3.6,5.5,1.6,4.4,2,9.8,5.6,15.2,8.4,5,2.6,10.9,5.2,17.9,6-1.8,4.2-3.1,8.1-4.2,11.7-3.9,12.3-6.8,21.1-27.9,31.5-5,2.4-7,8.4-4.5,13.4,1.7,3.5,5.3,5.6,9,5.6s3-.3,4.4-1c28.7-14.2,33.7-29.7,38.1-43.3,2.9-9.1,5.5-17.1,15.2-26.2,7-5.2,12.4-13.1,18.7-20.4,4.2-5,11-12.8,21.4-23.2,4.5-4.4,11-8.5,19.1-11.8,10.9-4.5,25.3-7.9,41.9-10,13-1.6,27.3-2.4,42.6-2.4h0c9.1,0,16.8.3,21.6.5.6,0,1.2,0,1.8,0,1,3.6,1.5,7.1,1.5,10.5,0,5.6-1.3,10.7-3.9,15.4-.4.6-.7,1.3-1.1,1.9-17.4.3-33,3.5-46.4,9.2-20.6,8.9-32.2,22.5-38.3,32.4-4.6,7.4-6.9,13.8-7.9,17.4-9.6,10.7-46.2,54.7-30.5,86.4,4.2,17.5,9.4,63.5-13.4,81.7-10.6,8.5-20.9,13.5-30.9,18.3-20,9.7-39,18.9-41.6,51.2-.5,5.5,4.1,10.4,9.6,10.8,5.1,0,9.9-3.9,10.4-9.2,1-11.6,4.5-18.3,10.7-23.5,2.1,9.3,6.9,20.6,17.4,30.1,1.9,1.7,4.3,2.6,6.7,2.6s5.4-1.1,7.4-3.3c3.7-4.1,3.4-10.4-.7-14.1-9.5-8.7-11.9-19.6-12.4-26,.4-.2.8-.4,1.2-.6,10.5-5.1,22.3-10.8,34.7-20.7,24.7-19.8,26-56.4,23.7-80.3,6.1,1.6,13.1,2.4,21.3,2.4s12.3-.4,19.3-1.3c13.4-1.6,26-4.4,34.2-6.5,2.3,7.5,3.9,15,4.7,22.8-33.5,5.2-59.2,34.2-59.2,69.2s7.7,36.5,20.2,49.2c-12.7,17.1-25.5,30.2-33.2,37.6-16.7,15.9-31.7,27.1-45.7,34.3-14.1,7.1-28.2,10.6-43.1,11-8.4,0-15.7-1.4-21.7-4.5-6.6-3.4-13-9.2-19.8-17.8-1.9-2.4-4.8-3.8-7.9-3.8s-4.4.7-6.1,2.1c-2.1,1.7-3.4,4-3.8,6.7-.3,2.7.4,5.3,2.1,7.4,8.5,10.9,17.1,18.5,26.3,23.2,8.7,4.5,19.6,6.7,30.8,6.7,17.9-.4,35.8-4.7,52.4-13.2,16-8.2,32.1-20.1,50.4-37.6,9.8-9.4,22.8-22.9,35.4-40,10,5.6,21.6,8.7,33.8,8.7,38.6,0,70-31.4,70-70,0-35.5-26.5-64.8-60.7-69.4ZM121,126.8c-5.3,4.2-7.2,10.9-8.9,16.9-4.2,14.8-10.9,38.9-71.1,54.4,7.6-88,57.2-101,71.5-102.9,4.7,5.2,13.3,17.2,8.4,31.5ZM333.5,62.7c-17.9.5-34.2,2.2-48.6,4.9-11.9,2.3-22,5.1-30.9,8.8-10.7,4.4-19,9.7-25.5,16.2-45.1,44.3-34.2,60.2-83.8,32.3-.9-.3-1.8-.6-2.6-.9,2-16.1-5-30.3-12.4-39.5,9.6-8.9,24.2-11.9,36.3-14.4,4.9-1,9.4-1.9,13.3-3.2,13.1-3.3,24.6-3.1,32.3.4,1.4.6,2.8.9,4.2.9,3.8,0,7.4-2.1,9.1-5.8,2.3-5,.1-11-4.9-13.3-7.1-3.3-14.7-4.5-22.2-4.6.9-3.9,1.6-8.4,2-13.5.3-4,.4-7.8.4-11.1h54.1l2.7,24.8c.3,3,2,5.7,4.5,7.3,2.5,1.6,5.6,2,8.5,1.1,29-9.3,51.8-7.4,61-6,2.3,6,2.7,11.6,2.5,15.6h0ZM305.7,153.6c13.3-13.8,31.9-21.2,56.7-22.4,0,5.7-1.5,14.1-9.3,21.7-2.7,2.6-3.7,6.5-2.6,10.1,0,.1,3.5,12.4-2.9,22.8-4.3,6.9-12.4,11.7-24,14.3-8.6-9.8-18.5-19.4-29.6-28.6,1.9-4.5,5.4-11.3,11.7-17.9h0ZM261,248.2h0c-8.4-15.5,10.2-44,22.6-59.3,21,17.7,36.8,36.6,47.2,56.1.8,1.5,1.5,2.9,2.2,4.4-29.2,7.2-65.7,10.3-72-1.2ZM356,410c-27.6,0-50-22.4-50-50s22.4-50,50-50,50,22.4,50,50-22.4,50-50,50Z"/>
  <path d="M356,330c-16.5,0-30,13.5-30,30s13.5,30,30,30,30-13.5,30-30-13.5-30-30-30ZM356,370c-5.5,0-10-4.5-10-10s4.5-10,10-10,10,4.5,10,10-4.5,10-10,10Z"/>
  <circle cx="109.5" cy="438.7" r="10"/>
</svg>