<?xml version="1.0" encoding="UTF-8"?>
<svg id="Capa_1" xmlns="http://www.w3.org/2000/svg" xmlns:xlink="http://www.w3.org/1999/xlink" version="1.1" viewBox="0 0 512 512">
  <!-- Generator: Adobe Illustrator 29.3.1, SVG Export Plug-In . SVG Version: 2.1.0 Build 151)  -->
  <path d="M355.6,0h-199.1c-26.8,0-48.6,21.8-48.6,48.6v414.9c0,26.8,21.8,48.6,48.6,48.6h199.1c26.8,0,48.6-21.8,48.6-48.6V48.6C404.2,21.8,382.4,0,355.6,0ZM384.1,463.4c0,15.8-12.8,28.6-28.6,28.6h-199.1c-15.8,0-28.6-12.8-28.6-28.6v-39.8h256.3v39.8ZM384.1,403.7H127.8V88.3h256.3v315.3h0ZM384.1,68.3H127.8v-19.8c0-15.8,12.8-28.6,28.6-28.6h199.1c15.8,0,28.6,12.8,28.6,28.6v19.8h0Z"/>
  <path d="M281.3,447.8h-50.7c-5.5,0-10,4.5-10,10s4.5,10,10,10h50.7c5.5,0,10-4.5,10-10s-4.5-10-10-10Z"/>
  <path d="M340.1,42.2c-.1-.6-.3-1.3-.6-1.9-.2-.6-.6-1.2-.9-1.7-.4-.6-.8-1.1-1.2-1.5s-1-.9-1.5-1.2c-.5-.4-1.1-.7-1.7-.9s-1.2-.4-1.9-.6c-1.3-.3-2.6-.3-3.9,0-.6,0-1.3.3-1.9.6-.6.2-1.2.6-1.7.9-.6.4-1.1.8-1.5,1.2-.5.5-.9,1-1.2,1.5-.4.5-.7,1.1-.9,1.7-.2.6-.4,1.2-.6,1.9s-.2,1.3-.2,2,0,1.3.2,2c.1.6.3,1.3.6,1.9.2.6.6,1.2.9,1.7.4.5.8,1.1,1.2,1.5s1,.9,1.5,1.2c.5.4,1.1.7,1.7.9.6.2,1.2.5,1.9.6.6,0,1.3.2,1.9.2s1.3,0,1.9-.2c.6,0,1.3-.3,1.9-.6.6-.2,1.2-.5,1.7-.9s1.1-.8,1.5-1.2.9-1,1.2-1.5c.4-.5.7-1.1.9-1.7.2-.6.4-1.2.6-1.9s.2-1.3.2-2,0-1.3-.2-2h.1Z"/>
  <path d="M293.3,34.2h-111.6c-5.5,0-10,4.5-10,10s4.5,10,10,10h111.6c5.5,0,10-4.5,10-10s-4.5-10-10-10Z"/>
  <path d="M342.6,287.4c-2.8-3-19.4-19.5-21.3-21.3-5.8-5.8-12.6-8.9-19.9-8.9h0c-7.2,0-14.1,3.1-19.9,8.9l-.9.9c-2,2-4.2,4.2-6.3,6.3-8.3-5.2-16.6-12.8-19.7-15.8-3-3.1-10.6-11.4-15.8-19.7,2.1-2,4.3-4.3,6.3-6.3l.9-.9c5.8-5.8,8.9-12.7,8.9-19.9s-3.1-14.1-8.8-19.8-18.4-18.5-21.4-21.3c-5.5-5.4-12.2-8.3-19.4-8.3s-13.9,2.9-19.6,8.3h0c0,.1-13.2,13.2-13.2,13.2-6.5,6.5-10.2,14.5-11,23.7-.8,9.9,1,20.2,5.5,32.5,8.7,23.4,22.5,44.3,42.2,64.1s40.7,33.6,64.1,42.2c10.3,3.8,19.3,5.7,27.9,5.7s3.1,0,4.7-.2c9.2-.8,17.1-4.5,23.6-11l13.1-13.1h.1c5.4-5.8,8.3-12.5,8.3-19.7s-2.9-13.9-8.3-19.4v-.2ZM328.2,312.4l-13,13.1c-3.1,3.1-6.8,4.9-11.2,5.2-6.9.5-14.5-.8-23.9-4.3-20.9-7.7-39-19.7-56.9-37.6-17.9-17.9-29.9-36-37.6-56.9-3.5-9.4-4.8-17-4.3-23.9.4-4.4,2.1-8.1,5.2-11.2l13.1-13c1.9-1.8,3.8-2.7,5.7-2.7s3.7.8,5.4,2.6l.3.3c1.6,1.5,13.7,13.6,20.9,20.9,1.4,1.4,3,3.5,3,5.7s-1.6,4.4-3,5.8l-.9.9c-2.1,2.2-8.6,8.7-11.2,11-3.2,2.9-4.2,7.6-2.4,11.6,6.8,14.9,21.5,29.9,23.2,31.6,1.7,1.7,16.7,16.3,31.6,23.1,4,1.8,8.6.8,11.6-2.4,2.3-2.6,8.9-9.1,11-11.2l1-.9c1.4-1.4,3.5-3,5.7-3h0c2.3,0,4.3,1.6,5.7,3,7.3,7.2,19.4,19.3,20.9,20.9,0,0,.2.2.3.3,1.7,1.7,2.6,3.5,2.6,5.4s-.9,3.8-2.7,5.7h-.1Z"/>
</svg>