<?xml version="1.0" encoding="UTF-8"?>
<svg id="Capa_1" xmlns="http://www.w3.org/2000/svg" version="1.1" viewBox="0 0 512 512">
  <!-- Generator: Adobe Illustrator 29.2.1, SVG Export Plug-In . SVG Version: 2.1.0 Build 116)  -->
  <path d="M487.8,421.3h-8v-204.3c5.7-10.4,10-21.6,12.8-33.5,16.6-71-27.5-142.3-98.5-159-34.4-8.1-69.8-2.3-99.8,16.3-30,18.6-51,47.8-59,82.2-2,8.5-3.1,17.1-3.4,25.6H62.2c-16.5,0-30,13.5-30,30v72c0,5.5,4.5,10,10,10s10-4.5,10-10v-72c0-5.5,4.5-10,10-10h170.4c.7,5.7,1.7,11.4,3.1,17H80.8c-5.5,0-10,4.5-10,10v202.1c0,5.5,4.5,10,10,10h348.5c5.5,0,10-4.5,10-10v-135.9c7.5-5.2,14.3-11.1,20.5-17.5v176.9h-135.7c-2.8,0-5.5,1.2-7.4,3.3l-7,7.7h-107.4l-7-7.7c-1.9-2.1-4.6-3.3-7.4-3.3H52.2v-90.6c0-5.5-4.5-10-10-10s-10,4.5-10,10v90.6h-8c-13.3,0-24.2,10.9-24.2,24.2v22.3c0,13.3,10.8,24.2,24.2,24.2h463.6c13.3,0,24.2-10.8,24.2-24.2v-22.3c0-13.3-10.9-24.2-24.2-24.2ZM419.3,387.8H90.8v-182.1h151.7c5.6,12.9,13.2,25.1,22.8,35.8,1.9,2.1,3.8,4.2,6,6.3l-2.7,52.8c-.2,3.6,1.5,6.9,4.5,8.9,1.7,1.1,3.6,1.6,5.5,1.6s3.1-.4,4.5-1.1l54.1-27.2c27.9,5.8,56.4,2.4,82-9.5v114.4ZM423.9,248.1c0,0-.2.1-.3.2-.2.1-.5.3-.7.4-25.5,15.8-55.6,20.7-84.7,13.9-2.3-.5-4.7-.3-6.8.8l-42,21.1,2-40.3c.1-3-1-5.9-3.2-7.9-3-2.8-5.6-5.4-8-8.1-24.4-27.3-34-64.9-25.7-100.6,6.8-29.2,24.6-54,50.1-69.8,25.5-15.8,55.6-20.7,84.7-13.9,60.2,14.1,97.7,74.7,83.6,134.9-2.5,10.8-6.5,20.9-11.9,30.2-.1.2-.2.4-.3.6-8.9,15.4-21.5,28.6-37,38.4ZM492,467.8c0,2.3-1.9,4.2-4.2,4.2H24.2c-2.3,0-4.2-1.9-4.2-4.2v-22.3c0-2.3,1.9-4.2,4.2-4.2h159.3l7,7.7c1.9,2.1,4.6,3.3,7.4,3.3h116.2c2.8,0,5.5-1.2,7.4-3.3l7-7.7h159.3c2.3,0,4.2,1.9,4.2,4.2v22.3Z"/>
  <path d="M213.9,268h-8.4v-8.5c0-11.1-9-20-20-20h-17.4c-11,0-20,9-20,20v8.5h-8.5c-11,0-20,9-20,20v17.4c0,11,9,20,20,20h8.5v8.4c0,11.1,9,20.1,20,20.1h17.4c11,0,20-9,20-20.1v-8.4h8.4c11.1,0,20.1-9,20.1-20v-17.4c0-11-9-20-20.1-20ZM213.9,305.5h-18.4c-5.5,0-10,4.5-10,10v18.5s-17.4,0-17.4,0h0v-18.5c0-5.5-4.5-10-10-10h-18.5s0-17.5,0-17.5h18.5c5.5,0,10-4.5,10-10v-18.5h17.5v18.5c0,5.5,4.5,10,10,10h18.5s0,17.5,0,17.5Z"/>
  <path d="M407.9,116.8h-83.4c-5.5,0-10,4.5-10,10s4.5,10,10,10h83.4c5.5,0,10-4.5,10-10s-4.5-10-10-10Z"/>
  <path d="M391.8,169h-67.3c-5.5,0-10,4.5-10,10s4.5,10,10,10h67.3c5.5,0,10-4.5,10-10s-4.5-10-10-10Z"/>
  <path d="M42.2,300.7c5.5,0,10-4.5,10-10v-.2c0-5.5-4.5-10-10-10s-10,4.5-10,10v.2c0,5.5,4.5,10,10,10Z"/>
</svg>