<?xml version="1.0" encoding="UTF-8" standalone="no"?>
<!-- Created with Inkscape (http://www.inkscape.org/) -->

<svg
   version="1.1"
   id="svg2670"
   xml:space="preserve"
   width="682.66669"
   height="682.66669"
   viewBox="0 0 682.66669 682.66669"
   xmlns="http://www.w3.org/2000/svg"
   xmlns:svg="http://www.w3.org/2000/svg"><defs
     id="defs2674"><clipPath
       clipPathUnits="userSpaceOnUse"
       id="clipPath2684"><path
         d="M 0,512 H 512 V 0 H 0 Z"
         id="path2682" /></clipPath><clipPath
       clipPathUnits="userSpaceOnUse"
       id="clipPath2720"><path
         d="M 0,512 H 512 V 0 H 0 Z"
         id="path2718" /></clipPath></defs><g
     id="g2676"
     transform="matrix(1.3333333,0,0,-1.3333333,0,682.66667)"><g
       id="g2678"><g
         id="g2680"
         clip-path="url(#clipPath2684)"><g
           id="g2686"
           transform="translate(414,502)"><path
             d="M 0,0 V -64 H 64"
             style="fill:none;stroke:#000000;stroke-width:20;stroke-linecap:round;stroke-linejoin:round;stroke-miterlimit:10;stroke-dasharray:none;stroke-opacity:1"
             id="path2688" /></g><g
           id="g2690"
           transform="translate(478,210.873)"><path
             d="M 0,0 V -200.873 H -140"
             style="fill:none;stroke:#000000;stroke-width:20;stroke-linecap:round;stroke-linejoin:round;stroke-miterlimit:10;stroke-dasharray:none;stroke-opacity:1"
             id="path2692" /></g><g
           id="g2694"
           transform="translate(118,170.0001)"><path
             d="M 0,0 V 331.962 H 296 L 360,268 V 130.873"
             style="fill:none;stroke:#000000;stroke-width:20;stroke-linecap:round;stroke-linejoin:round;stroke-miterlimit:10;stroke-dasharray:none;stroke-opacity:1"
             id="path2696" /></g><g
           id="g2698"
           transform="translate(478,255.873)"><path
             d="M 0,0 V 0"
             style="fill:none;stroke:#000000;stroke-width:20;stroke-linecap:round;stroke-linejoin:round;stroke-miterlimit:10;stroke-dasharray:none;stroke-opacity:1"
             id="path2700" /></g></g></g><g
       id="g2702"
       transform="translate(270,106.0922)"><path
         d="M 0,0 V -56.092"
         style="fill:none;stroke:#000000;stroke-width:20;stroke-linecap:round;stroke-linejoin:round;stroke-miterlimit:10;stroke-dasharray:none;stroke-opacity:1"
         id="path2704" /></g><g
       id="g2706"
       transform="translate(314,90)"><path
         d="M 0,0 H -44 V 40 H 0"
         style="fill:none;stroke:#000000;stroke-width:20;stroke-linecap:round;stroke-linejoin:round;stroke-miterlimit:10;stroke-dasharray:none;stroke-opacity:1"
         id="path2708" /></g><g
       id="g2710"
       transform="translate(98,106.0922)"><path
         d="M 0,0 V -56.092"
         style="fill:none;stroke:#000000;stroke-width:20;stroke-linecap:round;stroke-linejoin:round;stroke-miterlimit:10;stroke-dasharray:none;stroke-opacity:1"
         id="path2712" /></g><g
       id="g2714"><g
         id="g2716"
         clip-path="url(#clipPath2720)"><g
           id="g2722"
           transform="translate(122,90)"><path
             d="M 0,0 H -24 V 40 H 0 c 11.046,0 20,-8.954 20,-20 v 0 C 20,8.954 11.046,0 0,0 Z"
             style="fill:none;stroke:#000000;stroke-width:20;stroke-linecap:round;stroke-linejoin:round;stroke-miterlimit:10;stroke-dasharray:none;stroke-opacity:1"
             id="path2724" /></g><g
           id="g2726"
           transform="translate(204.25,50)"><path
             d="M 0,0 H -22.25 V 80 H 0 C 14.221,80 25.75,68.471 25.75,54.25 V 25.75 C 25.75,11.529 14.221,0 0,0 Z"
             style="fill:none;stroke:#000000;stroke-width:20;stroke-linecap:round;stroke-linejoin:round;stroke-miterlimit:10;stroke-dasharray:none;stroke-opacity:1"
             id="path2728" /></g><g
           id="g2730"
           transform="translate(338,170)"><path
             d="m 0,0 h -264 c -22.091,0 -40,-17.909 -40,-40 v -80 c 0,-22.091 17.909,-40 40,-40 H 0 c 22.091,0 40,17.909 40,40 v 80 C 40,-17.909 22.091,0 0,0 Z"
             style="fill:none;stroke:#000000;stroke-width:20;stroke-linecap:round;stroke-linejoin:round;stroke-miterlimit:10;stroke-dasharray:none;stroke-opacity:1"
             id="path2732" /></g><g
           id="g2734"
           transform="translate(178.253,222.9256)"><path
             d="m 0,0 c 22.554,-23.579 74.396,42.378 95.114,104.531 20.718,62.154 34.6,130.9 10.359,130.9 -23.799,0 -42.377,-74.396 36.727,-144.084 C 221.305,21.66 242.965,37.669 243.907,56.504 244.848,75.338 186.462,87.58 110.182,74.396 33.902,61.212 -20.718,21.66 0,0 Z"
             style="fill:none;stroke:#000000;stroke-width:20;stroke-linecap:round;stroke-linejoin:round;stroke-miterlimit:10;stroke-dasharray:none;stroke-opacity:1"
             id="path2736" /></g></g></g></g></svg>
