<?xml version="1.0" encoding="UTF-8"?>
<svg id="svg2739" xmlns="http://www.w3.org/2000/svg" xmlns:svg="http://www.w3.org/2000/svg" version="1.1" viewBox="0 0 682.7 682.7">
  <!-- Generator: Adobe Illustrator 29.2.1, SVG Export Plug-In . SVG Version: 2.1.0 Build 116)  -->
  <circle cx="261.3" cy="453.3" r="13.3"/>
  <path d="M667,292.8c-10.1-10.1-23.5-15.6-37.7-15.6s-27.6,5.5-37.7,15.6l-105.6,106.1c-6.3-22.4-26.9-38.9-51.3-38.9h-198.2c-17.8,0-34.6,6.9-47.2,19.5L3.9,565.2c-5.2,5.2-5.2,13.6,0,18.8l94.3,94.7c2.5,2.5,5.9,3.9,9.4,3.9h0c3.5,0,6.9-1.4,9.5-3.9l104.7-105.4h213.1c17.8,0,34.6-6.9,47.2-19.5l184.9-185.5c10.1-10.1,15.6-23.5,15.6-37.7s-5.5-27.6-15.6-37.7ZM648.2,349.4l-184.9,185.6c-7.5,7.6-17.6,11.7-28.3,11.7h-218.7c-3.6,0-7,1.4-9.5,3.9l-99.2,99.8-75.4-75.8,176-176.3c7.5-7.6,17.6-11.7,28.3-11.7h198.2c14.7,0,26.7,12,26.7,26.7s-1.6,10.6-4.7,15.1l-3.5,3.5c-.7.7-1.3,1.4-1.8,2.2-4.7,3.8-10.6,5.9-16.7,5.9h-120c-7.4,0-13.3,6-13.3,13.3s6,13.3,13.3,13.3h120c14.2,0,27.6-5.5,37.7-15.6,1.7-1.7,3.2-3.5,4.7-5.3l133.5-134c5-5,11.7-7.8,18.9-7.8s13.8,2.8,18.9,7.8c5,5,7.8,11.7,7.8,18.8s-2.8,13.8-7.8,18.9Z"/>
  <path d="M192.5,271.1c36.3,21,76.5,25.9,106.4,25.9,21,0,36.8-2.4,42.7-3.5,5.9,1.1,21.8,3.5,42.7,3.5,29.9,0,70.1-5,106.4-25.9,67.4-38.9,93.7-116.9,94.8-120.2,1.2-3.6.8-7.5-1.1-10.8-1.9-3.3-5.1-5.6-8.8-6.4-1.9-.4-40.7-8.2-86.7-.5,7.7-46.1-.1-84.9-.5-86.7-.8-3.7-3.1-6.9-6.4-8.8-3.3-1.9-7.2-2.3-10.8-1.1-1.8.6-39.7,13.3-75.9,43.3-16.3-44-42.7-73.9-44-75.3-2.5-2.8-6.1-4.5-9.9-4.5s-7.4,1.6-9.9,4.5c-1.3,1.4-27.5,31.1-43.8,74.9-36-29.7-73.6-42.3-75.4-42.9-3.6-1.2-7.5-.8-10.8,1.1-3.3,1.9-5.6,5.1-6.4,8.8-.4,1.9-8.2,40.7-.5,86.7-46.1-7.7-84.9.1-86.7.5-3.7.8-6.9,3.1-8.8,6.4-1.9,3.3-2.3,7.2-1.1,10.8,1.1,3.3,27.4,81.3,94.8,120.2ZM554.1,157.5c-10.5,22.9-34.7,66.3-76.6,90.4-27.9,16.1-59.2,21.2-84.4,22.1,24.8-15.1,53.9-38.5,73.4-72.2,6.4-11.1,11.7-23.3,15.7-36.3,28.5-6.5,55.5-5.6,72-4.1ZM458.6,147c-3.7,13.6-8.8,26.3-15.3,37.5-16.4,28.4-41.5,48.6-63.2,62,14-25.6,27.9-60.8,27.9-99.9s-1.5-25.7-4.4-38.8c21.6-20.1,45.7-33.1,60.9-40,1.7,17.8,2.5,48.1-5.8,79.1ZM341.3,35.1c10.4,14.7,26.4,40.7,34.7,71.9,3.5,13.5,5.3,26.8,5.3,39.7,0,48.4-25.6,91.3-40,111.6-14.6-20.5-40-63.1-40-111.6s1.8-26.5,5.5-40.2c8.3-31.1,24.1-56.9,34.5-71.4ZM218.9,67.9c15,6.9,38.9,19.7,60.3,39.5-3,13.3-4.5,26.5-4.5,39.3,0,38.9,13.6,73.7,27.4,99.2-21.4-13.4-46-33.5-62.1-61.3-6.5-11.3-11.7-23.9-15.3-37.5-8.4-31-7.5-61.3-5.8-79.1ZM201.2,161.6c4.1,13,9.3,25.2,15.8,36.3,19.4,33.7,48.6,57.1,73.4,72.2-25.2-.9-56.5-6-84.4-22.1-41.9-24.2-66.2-67.6-76.6-90.4,16.4-1.6,43.5-2.4,72,4.1Z"/>
</svg>