<?xml version="1.0" encoding="UTF-8"?>
<svg id="svg549" xmlns="http://www.w3.org/2000/svg" xmlns:svg="http://www.w3.org/2000/svg" version="1.1" viewBox="0 0 682.7 682.7">
  <!-- Generator: Adobe Illustrator 29.3.1, SVG Export Plug-In . SVG Version: 2.1.0 Build 151)  -->
  <defs>
    <style>
      .st0 {
        fill: #020202;
      }
    </style>
  </defs>
  <g id="g555">
    <g id="g557">
      <g id="g559">
        <g id="g565">
          <g id="path567">
            <path class="st0" d="M341.3,386.7c-73.5,0-133.3-59.8-133.3-133.3s59.8-133.3,133.3-133.3,133.3,59.8,133.3,133.3-59.8,133.3-133.3,133.3ZM341.3,146.7c-58.8,0-106.7,47.9-106.7,106.7s47.9,106.7,106.7,106.7,106.7-47.9,106.7-106.7-47.9-106.7-106.7-106.7Z"/>
          </g>
        </g>
        <g id="g569">
          <g id="path571">
            <path d="M354.7,13.3c0,7.4-6,13.3-13.3,13.3s-13.3-6-13.3-13.3S334,0,341.3,0s13.3,6,13.3,13.3"/>
          </g>
        </g>
        <g id="g573">
          <g id="path575">
            <path class="st0" d="M341.3,682.7c-4.2,0-8.1-2-10.7-5.3-9.4-12.6-18.5-24.7-27.2-36.3-90.4-120.4-145-193.1-175.7-246.3-29.7-51.3-39.7-87-39.7-141.4s18.7-111.6,54.2-156.6C176.6,53.1,225,21.5,278.5,7.9c7.1-1.8,14.4,2.5,16.2,9.6,1.8,7.1-2.5,14.4-9.6,16.2-47.9,12.2-91.2,40.5-122,79.5-31.7,40.3-48.5,88.7-48.5,140.1,0,91.8,28,129.1,210.1,371.7,5.4,7.2,10.9,14.5,16.6,22.1,5.6-7.5,11.1-14.8,16.5-21.9,182.2-242.7,210.2-280,210.2-371.9s-16.8-99.8-48.5-140.1c-30.8-39.1-74.1-67.3-122-79.5-7.1-1.8-11.4-9.1-9.6-16.2,1.8-7.1,9.1-11.4,16.2-9.6,53.5,13.7,101.9,45.2,136.3,88.9,35.4,45,54.2,99.2,54.2,156.6s-2.5,48.6-8,69.2c-6,22.3-16,45.2-31.6,72.2-30.8,53.2-85.4,125.9-175.9,246.5-8.7,11.6-17.7,23.6-27.1,36.1-2.5,3.4-6.5,5.3-10.7,5.3Z"/>
          </g>
        </g>
      </g>
    </g>
  </g>
</svg>