<?xml version="1.0" encoding="UTF-8"?>
<svg id="svg4929" xmlns="http://www.w3.org/2000/svg" xmlns:svg="http://www.w3.org/2000/svg" version="1.1" viewBox="0 0 682.7 682.7">
  <!-- Generator: Adobe Illustrator 29.2.1, SVG Export Plug-In . SVG Version: 2.1.0 Build 116)  -->
  <path d="M624.4,382.9c-7.1-10-13.8-19.4-19-27.2-2.5-3.7-6.6-5.9-11.1-5.9h0c-4.4,0-8.6,2.2-11.1,5.9-5.2,7.7-11.8,17-18.8,26.9-16.9,23.8-36.1,50.8-45.7,70.1-5.8,11.6-8.9,24.6-8.9,37.6,0,46.5,37.9,84.3,84.5,84.3s84.5-37.8,84.5-84.3-3.1-26.1-8.9-37.7c-9.6-19.2-28.7-46.1-45.5-69.8ZM594.3,547.9c-31.9,0-57.8-25.9-57.8-57.6s2.1-17.8,6-25.7c8.7-17.5,27.3-43.6,43.6-66.6,2.8-3.9,5.5-7.8,8.1-11.4,2.7,3.8,5.5,7.8,8.4,11.8,16.3,22.9,34.7,48.9,43.4,66.3,3.9,7.9,6,16.8,6,25.7,0,31.8-25.9,57.6-57.8,57.6Z"/>
  <path d="M612.6,227.6c7.1,3.8,14.9,5.8,22.7,5.8,12.1,0,24.3-4.6,33.5-13.8,8.9-8.9,13.9-20.8,13.9-33.5,0-12.7-4.9-24.6-13.9-33.5l-26.8-26.7c-5.2-5.2-13.7-5.2-18.9,0s-5.2,13.7,0,18.9l26.8,26.7c3.9,3.9,6,9.1,6,14.6s-2.1,10.7-6,14.6c-8.1,8.1-21.3,8.1-29.4,0L482.3,62.7c-3.9-3.9-6-9.1-6-14.6s2.1-10.7,6-14.6c8.1-8.1,21.3-8.1,29.4,0l26.8,26.7c5.2,5.2,13.7,5.2,18.9,0,5.2-5.2,5.2-13.7,0-18.9l-26.8-26.7c-18.5-18.4-48.6-18.4-67.1,0-8.9,8.9-13.9,20.8-13.9,33.5s2,15.8,5.8,22.7L32.5,492.7C11.5,513.6,0,541.5,0,571.2s11.5,57.6,32.5,78.4c21.7,21.6,50.1,32.4,78.5,32.4s56.9-10.8,78.5-32.4l39.9-39.8c.1-.1.2-.2.3-.3l183.2-182.7c0,0,.1-.1.2-.2l199.4-198.9ZM220.4,581.2l-119.4-119.1,99.4-99.1,64.9-64.8,119.4,119.1-164.3,163.9ZM284.1,279.3l49.1-49,207.8,30.9-137.6,137.2-119.4-119.1ZM592.3,210.1l-27.7,27.7-207.8-30.9,116.1-115.9,119.4,119.2ZM170.7,630.7c-32.9,32.9-86.5,32.9-119.4,0-15.9-15.8-24.6-37-24.6-59.5s8.7-43.7,24.6-59.6l30.8-30.7,119.4,119.1-30.8,30.7Z"/>
  <path d="M242.8,420.8l-18.5-18.5c-5.2-5.2-13.7-5.2-18.9,0-5.2,5.2-5.2,13.7,0,18.9l18.5,18.5-18.5,18.5c-5.2,5.2-5.2,13.6,0,18.9,2.6,2.6,6,3.9,9.4,3.9s6.8-1.3,9.4-3.9l18.5-18.5,18.5,18.5c2.6,2.6,6,3.9,9.4,3.9s6.8-1.3,9.4-3.9c5.2-5.2,5.2-13.7,0-18.9l-18.5-18.5,18.5-18.5c5.2-5.2,5.2-13.6,0-18.9-5.2-5.2-13.6-5.2-18.9,0l-18.5,18.5Z"/>
  <path d="M590.3,106.3c3.4,0,6.8-1.3,9.4-3.8,5.2-5.2,5.3-13.6.1-18.9h0c-5.2-5.3-13.6-5.3-18.8-.1-5.2,5.2-5.3,13.6-.1,18.9,2.6,2.6,6,4,9.5,4Z"/>
</svg>