<?xml version="1.0" encoding="UTF-8"?>
<svg id="svg1176" xmlns="http://www.w3.org/2000/svg" xmlns:svg="http://www.w3.org/2000/svg" version="1.1" viewBox="0 0 682.7 682.7">
  <!-- Generator: Adobe Illustrator 29.2.1, SVG Export Plug-In . SVG Version: 2.1.0 Build 116)  -->
  <path d="M669.3,555.8h-24V181.9c0-7.4-6-13.3-13.3-13.3h-121.1v-40.2h11.2c7.4,0,13.3-6,13.3-13.3V43.5c0-7.4-6-13.3-13.3-13.3H160.6c-7.4,0-13.3,6-13.3,13.3v71.5c0,7.4,6,13.3,13.3,13.3h11.2v40.2H50.6c-7.4,0-13.3,6-13.3,13.3v374H13.3C6,555.8,0,561.8,0,569.2v70c0,7.4,6,13.3,13.3,13.3h267.7c7.4,0,13.3-6,13.3-13.3s-6-13.3-13.3-13.3H26.7v-43.3h629.3v43.3h-254.4c-7.4,0-13.3,6-13.3,13.3s6,13.3,13.3,13.3h267.7c7.4,0,13.3-6,13.3-13.3v-70c0-7.4-6-13.3-13.3-13.3ZM618.7,473h-40.6v-45.3h40.6v45.3ZM618.7,316.5h-40.6v-45.3h40.6v45.3ZM173.9,56.8h334.9v44.8H173.9v-44.8ZM484.3,128.3v427.5h-51.5v-162.3h11.7c7.4,0,13.3-6,13.3-13.3s-6-13.3-13.3-13.3h-25s0,0,0,0h-78.1s0,0,0,0h-103.1c-7.4,0-13.3,6-13.3,13.3s6,13.3,13.3,13.3h11.7v162.3h-51.5V181.9s0,0,0,0v-53.5h285.8ZM354.7,393.5h51.4v162.3h-51.4v-162.3ZM64,271.2h40.6v45.3h-40.6v-45.3ZM64,427.8h40.6v45.3h-40.6v-45.3ZM64,499.7h53.9c7.4,0,13.3-6,13.3-13.3v-71.9c0-7.4-6-13.3-13.3-13.3h-53.9v-58h53.9c7.4,0,13.3-6,13.3-13.3v-71.9c0-7.4-6-13.3-13.3-13.3h-53.9v-49.4h107.8v360.6H64v-56.1ZM276.6,393.5h51.4v162.3h-51.4v-162.3ZM510.9,555.8V195.2h107.8v49.4h-53.9c-7.4,0-13.3,6-13.3,13.3v71.9c0,7.4,6,13.3,13.3,13.3h53.9v58h-53.9c-7.4,0-13.3,6-13.3,13.3v71.9c0,7.4,6,13.3,13.3,13.3h53.9v56.1h-107.8Z"/>
  <path d="M354.6,636.6c-.2-.8-.4-1.7-.8-2.5-.3-.8-.8-1.6-1.2-2.3-.2-.4-.5-.7-.8-1-.3-.3-.6-.7-.9-1-2.5-2.5-5.9-3.9-9.4-3.9s-6.9,1.4-9.4,3.9c-.3.3-.6.6-.9,1-.3.3-.5.7-.8,1-.5.7-.9,1.5-1.2,2.3-.3.8-.6,1.7-.8,2.5,0,.4-.2.9-.2,1.3,0,.4,0,.9,0,1.3s0,.9,0,1.3c0,.4.1.9.2,1.3.2.9.4,1.7.8,2.5.3.8.7,1.6,1.2,2.3.2.4.5.7.8,1.1.3.3.6.7.9,1,2.5,2.5,5.9,3.9,9.4,3.9s6.9-1.4,9.4-3.9c.3-.3.6-.6.9-1,.3-.3.5-.7.8-1.1.5-.7.9-1.5,1.2-2.3.3-.8.6-1.6.8-2.5,0-.4.2-.9.2-1.3,0-.4,0-.9,0-1.3s0-.9,0-1.3c0-.4-.1-.9-.2-1.3Z"/>
  <path d="M282.8,277.2h18.6v18.6c0,7.4,6,13.3,13.3,13.3h53.7c7.4,0,13.3-6,13.3-13.3v-18.6h18.6c7.4,0,13.3-6,13.3-13.3v-53.7c0-7.4-6-13.3-13.3-13.3h-18.6v-18.6c0-7.4-6-13.3-13.3-13.3h-53.7c-7.4,0-13.3,6-13.3,13.3v18.6h-18.6c-7.4,0-13.3,6-13.3,13.3v53.7c0,7.4,6,13.3,13.3,13.3ZM296.1,223.5h18.6c7.4,0,13.3-6,13.3-13.3v-18.6h27v18.6c0,7.4,6,13.3,13.3,13.3h18.6v27h-18.6c-7.4,0-13.3,6-13.3,13.3v18.6h-27v-18.6c0-7.4-6-13.3-13.3-13.3h-18.6v-27Z"/>
</svg>