<svg id="Capa_1" enable-background="new 0 0 512 512" height="512" viewBox="0 0 512 512" width="512" xmlns="http://www.w3.org/2000/svg"><g><g><path d="m437.287 422.814c8.392-8.834 16.185-18.317 23.308-28.409 29.872-42.323 45.661-92.17 45.661-144.149 0-36.562-7.71-71.805-22.914-104.753-2.315-5.014-8.254-7.203-13.271-4.89-5.015 2.314-7.203 8.256-4.89 13.271 13.984 30.301 21.074 62.726 21.074 96.372 0 47.827-14.523 93.686-42.001 132.616-25.804 36.56-61.103 64.494-102.333 81.069-8.583-7.143-19.607-11.447-31.62-11.447h-10.936v-80.871h10.936c23.873 0 43.853-16.985 48.49-39.506h.836c16.406 0 29.753-13.347 29.753-29.753 0-6.533-2.122-12.577-5.705-17.491 3.041-11.24 4.58-22.861 4.58-34.618.001-72.925-59.329-132.255-132.255-132.255s-132.256 59.33-132.256 132.256c0 12.024 1.622 23.903 4.801 35.377-3.256 4.771-5.164 10.532-5.164 16.731 0 16.406 13.347 29.753 29.753 29.753h.836c4.638 22.521 24.617 39.506 48.49 39.506h10.936v80.871h-10.936c-12.127 0-23.244 4.391-31.862 11.656-41.353-16.507-76.769-44.426-102.676-81.027-27.594-38.985-42.179-84.93-42.179-132.867 0-61.504 23.951-119.326 67.44-162.815 26.693-26.692 58.789-46.009 93.817-56.961v11.778c0 20.956 17.05 38.006 38.006 38.006h61.988c20.956 0 38.006-17.05 38.006-38.006v-11.739c33.192 10.397 63.818 28.3 89.622 52.832 4.002 3.806 10.332 3.646 14.137-.356 3.806-4.003 3.646-10.333-.357-14.138-46.706-44.404-107.933-68.857-172.402-68.857-66.846 0-129.69 26.031-176.958 73.298-47.267 47.267-73.298 110.112-73.298 176.958 0 52.1 15.856 102.039 45.854 144.422 7.072 9.991 14.802 19.381 23.117 28.135l-21.069 20.118c-1.976 1.887-3.094 4.5-3.094 7.232v51.837c0 5.522 4.478 10 10 10h390.896c5.522 0 10-4.478 10-10v-51.837c0-2.732-1.118-5.346-3.094-7.232zm-132.287-397.59v17.034c0 9.929-8.077 18.006-18.006 18.006h-61.988c-9.929 0-18.006-8.077-18.006-18.006v-17.049c15.923-3.434 32.324-5.209 49-5.209 16.645 0 33.054 1.773 49 5.224zm-49 112.776c61.898 0 112.256 50.357 112.256 112.256 0 7.781-.812 15.485-2.382 23.02-2.015-.432-4.104-.665-6.246-.665h-206.494c-2.402 0-4.735.293-6.974.833-1.593-7.588-2.416-15.349-2.416-23.188 0-61.899 50.358-112.256 112.256-112.256zm-112.619 164.364c0-5.378 4.375-9.754 9.753-9.754h206.494c5.378 0 9.753 4.376 9.753 9.754s-4.375 9.753-9.753 9.753h-206.494c-5.378 0-9.753-4.375-9.753-9.753zm31.317 29.753h163.365c-4.105 11.363-15 19.506-27.762 19.506h-107.841c-12.762 0-23.656-8.143-27.762-19.506zm58.698 39.506h45.971v80.871h-45.971zm-162.844 82.818 18.509-17.673c20.304 18.211 43.479 32.975 68.798 43.758-1.742 3.604-3.06 7.451-3.889 11.474h-83.418zm104.146 37.559c4.105-11.363 15-19.506 27.762-19.506h107.842c12.762 0 23.656 8.143 27.762 19.506zm266.75 0h-82.656c-.849-4.124-2.218-8.059-4.026-11.742 25.076-10.761 48.036-25.434 68.171-43.493l18.512 17.676v37.559z"/><path d="m134.904 115.018c-3.905-3.903-10.235-3.904-14.143 0-15.573 15.572-28.216 33.468-37.579 53.19-2.368 4.989-.243 10.953 4.746 13.322 1.385.657 2.844.968 4.281.968 3.741 0 7.329-2.109 9.041-5.714 8.379-17.65 19.701-33.673 33.653-47.624 3.907-3.905 3.907-10.236.001-14.142z"/><path d="m377.096 385.494c1.953 1.952 4.512 2.929 7.071 2.929s5.118-.977 7.071-2.929c15.573-15.572 28.216-33.468 37.579-53.19 2.368-4.989.243-10.953-4.746-13.322s-10.953-.244-13.322 4.746c-8.379 17.65-19.701 33.673-33.653 47.624-3.906 3.905-3.906 10.236 0 14.142z"/><path d="m120.762 385.494c1.953 1.952 4.512 2.929 7.071 2.929s5.119-.977 7.071-2.929c3.905-3.906 3.905-10.237 0-14.143-13.952-13.951-25.274-29.974-33.653-47.624-2.37-4.99-8.339-7.115-13.322-4.746-4.989 2.369-7.114 8.333-4.746 13.322 9.363 19.723 22.005 37.619 37.579 53.191z"/><path d="m419.79 182.498c1.438 0 2.897-.311 4.281-.968 4.989-2.369 7.114-8.333 4.746-13.322-9.363-19.723-22.006-37.618-37.579-53.19-3.906-3.904-10.238-3.904-14.143 0-3.905 3.906-3.905 10.237 0 14.143 13.952 13.951 25.274 29.974 33.653 47.624 1.713 3.604 5.301 5.713 9.042 5.713z"/><circle cx="451.2" cy="110.152" r="10"/><circle cx="437.255" cy="250.229" r="10"/><circle cx="74.74" cy="250.256" r="10"/></g></g></svg>