<?xml version="1.0" encoding="UTF-8"?>
<svg id="Capa_1" xmlns="http://www.w3.org/2000/svg" xmlns:xlink="http://www.w3.org/1999/xlink" version="1.1" viewBox="0 0 512 512">
  <!-- Generator: Adobe Illustrator 29.2.1, SVG Export Plug-In . SVG Version: 2.1.0 Build 116)  -->
  <path d="M437,75C388.7,26.6,324.4,0,256,0S123.3,26.6,75,75C26.6,123.3,0,187.6,0,256s26.6,132.7,75,181c48.4,48.4,112.6,75,181,75s105.5-16.6,149.2-47.9c4.5-3.2,5.5-9.5,2.3-14-3.2-4.5-9.5-5.5-14-2.3-40.2,28.9-87.8,44.2-137.5,44.2s-122.3-24.5-166.9-69.1c-44.6-44.6-69.1-103.8-69.1-166.9s24.5-122.3,69.1-166.9c44.6-44.6,103.8-69.1,166.9-69.1s122.3,24.5,166.9,69.1c44.6,44.6,69.1,103.8,69.1,166.9s-15.3,97.3-44.2,137.5c-3.2,4.5-2.2,10.7,2.3,14,4.5,3.2,10.7,2.2,14-2.3,31.4-43.7,47.9-95.3,47.9-149.2s-26.6-132.7-75-181Z"/>
  <path d="M408.7,103.3c-40.8-40.8-95-63.3-152.7-63.3s-111.9,22.5-152.7,63.3c-40.8,40.8-63.3,95-63.3,152.7s22.5,111.9,63.3,152.7c40.8,40.8,95,63.3,152.7,63.3s111.9-22.5,152.7-63.3c40.8-40.8,63.3-95,63.3-152.7s-22.5-111.9-63.3-152.7ZM256,452c-108.1,0-196-87.9-196-196S147.9,60,256,60s196,87.9,196,196-87.9,196-196,196Z"/>
  <path d="M256,115c5.5,0,10-4.5,10-10v-15c0-5.5-4.5-10-10-10s-10,4.5-10,10v15c0,5.5,4.5,10,10,10Z"/>
  <path d="M142.2,156.3c2,2,4.5,2.9,7.1,2.9s5.1-1,7.1-2.9c3.9-3.9,3.9-10.2,0-14.1l-10.6-10.6c-3.9-3.9-10.2-3.9-14.1,0-3.9,3.9-3.9,10.2,0,14.1l10.6,10.6Z"/>
  <path d="M105,246h-15c-5.5,0-10,4.5-10,10s4.5,10,10,10h15c5.5,0,10-4.5,10-10s-4.5-10-10-10Z"/>
  <path d="M142.2,355.7l-10.6,10.6c-3.9,3.9-3.9,10.2,0,14.1,2,2,4.5,2.9,7.1,2.9s5.1-1,7.1-2.9l10.6-10.6c3.9-3.9,3.9-10.2,0-14.1-3.9-3.9-10.2-3.9-14.1,0Z"/>
  <path d="M256,397c-5.5,0-10,4.5-10,10v15c0,5.5,4.5,10,10,10s10-4.5,10-10v-15c0-5.5-4.5-10-10-10Z"/>
  <path d="M369.8,355.7c-3.9-3.9-10.2-3.9-14.1,0-3.9,3.9-3.9,10.2,0,14.1l10.6,10.6c2,2,4.5,2.9,7.1,2.9s5.1-1,7.1-2.9c3.9-3.9,3.9-10.2,0-14.1l-10.6-10.6Z"/>
  <path d="M422,246h-15c-5.5,0-10,4.5-10,10s4.5,10,10,10h15c5.5,0,10-4.5,10-10s-4.5-10-10-10Z"/>
  <path d="M366.3,131.5l-10.6,10.6c-3.9,3.9-3.9,10.2,0,14.1,2,2,4.5,2.9,7.1,2.9s5.1-1,7.1-2.9l10.6-10.6c3.9-3.9,3.9-10.2,0-14.1-3.9-3.9-10.2-3.9-14.1,0Z"/>
  <path d="M323.2,174.7l-54.3,54.3c-3.9-1.9-8.3-2.9-12.9-2.9s-1.1,0-1.6,0l-39.3-94.9c-2.1-5.1-8-7.5-13.1-5.4-5.1,2.1-7.5,8-5.4,13.1l39.3,94.9c-6.1,5.5-9.9,13.4-9.9,22.3,0,16.5,13.5,30,30,30s30-13.5,30-30-1.1-9-2.9-12.9l54.3-54.3c3.9-3.9,3.9-10.2,0-14.1-3.9-3.9-10.2-3.9-14.1,0ZM256,266c-5.5,0-10-4.5-10-10s4.5-10,10-10,10,4.5,10,10-4.5,10-10,10Z"/>
  <path d="M439.2,426.1c-.2-.6-.6-1.2-.9-1.7-.4-.5-.8-1.1-1.2-1.5-1.9-1.9-4.4-2.9-7.1-2.9s-5.2,1.1-7.1,2.9-2.9,4.4-2.9,7.1,1.1,5.2,2.9,7.1c.5.5,1,.9,1.5,1.2.5.4,1.1.7,1.7.9.6.2,1.2.4,1.9.6.6.1,1.3.2,2,.2,2.6,0,5.2-1.1,7.1-2.9,1.9-1.9,2.9-4.4,2.9-7.1s0-1.3-.2-2c-.1-.6-.3-1.3-.6-1.9Z"/>
</svg>