<?xml version="1.0" encoding="UTF-8"?>
<svg id="svg549" xmlns="http://www.w3.org/2000/svg" xmlns:svg="http://www.w3.org/2000/svg" version="1.1" viewBox="0 0 682.7 682.7">
  <!-- Generator: Adobe Illustrator 29.2.1, SVG Export Plug-In . SVG Version: 2.1.0 Build 116)  -->
  <defs>
    <style>
      .st0 {
        fill: #020202;
      }
    </style>
  </defs>
  <path class="st0" d="M208,253.3c0,73.5,59.8,133.3,133.3,133.3s133.3-59.8,133.3-133.3-59.8-133.3-133.3-133.3-133.3,59.8-133.3,133.3ZM448,253.3c0,58.8-47.9,106.7-106.7,106.7s-106.7-47.9-106.7-106.7,47.9-106.7,106.7-106.7,106.7,47.9,106.7,106.7Z"/>
  <circle class="st0" cx="341.3" cy="13.3" r="13.3" transform="translate(2.3 54.8) rotate(-9.2)"/>
  <path class="st0" d="M540.5,96.7c-34.4-43.7-82.8-75.2-136.3-88.9-7.1-1.8-14.4,2.5-16.2,9.6-1.8,7.1,2.5,14.4,9.6,16.2,47.9,12.2,91.2,40.5,122,79.5,31.7,40.3,48.5,88.7,48.5,140.1,0,91.8-28,129.1-210.2,371.9-5.4,7.1-10.8,14.4-16.5,21.9-5.7-7.5-11.2-14.9-16.6-22.1C142.7,382.5,114.7,345.2,114.7,253.3s16.8-99.8,48.5-140.1c30.8-39.1,74.1-67.3,122-79.5,7.1-1.8,11.4-9.1,9.6-16.2-1.8-7.1-9.1-11.4-16.2-9.6-53.5,13.7-101.9,45.2-136.3,88.9-35.4,45-54.2,99.2-54.2,156.6s10,90.1,39.7,141.4c30.8,53.2,85.3,125.9,175.7,246.3,8.7,11.6,17.8,23.7,27.2,36.3,2.5,3.4,6.5,5.3,10.7,5.3s8.1-2,10.7-5.3c9.4-12.5,18.4-24.6,27.1-36.1,90.5-120.6,145.1-193.3,175.9-246.5,15.6-27,25.7-49.9,31.6-72.2,5.5-20.6,8-41.9,8-69.2,0-57.4-18.7-111.6-54.2-156.6Z"/>
</svg>