<?xml version="1.0" encoding="UTF-8"?>
<svg id="Capa_1" xmlns="http://www.w3.org/2000/svg" xmlns:xlink="http://www.w3.org/1999/xlink" version="1.1" viewBox="0 0 512 512">
  <!-- Generator: Adobe Illustrator 29.3.1, SVG Export Plug-In . SVG Version: 2.1.0 Build 151)  -->
  <path d="M500.3,24.6c-7.6-7.6-17.6-11.7-28.3-11.7s-20.7,4.2-28.3,11.7L178.4,289.9h0S5.9,462.5,5.9,462.5c-5.1,5.1-7.1,12.7-5.1,19.7,2,7,7.6,12.3,14.7,13.9,8.6,2,17.9,3,27.6,3,14.9,0,30.7-2.4,46.2-7,26.2-7.8,50.1-21.7,67.5-39.1l28.7-28.7c11.1-11.1,16.4-26.9,14.1-42.4l-3.5-24.8,17.7-17.7h0c3.8,3.8,8.8,5.9,14.1,5.9s10.4-2.1,14.1-5.9l20.4-20.4c3.9-3.9,3.9-10.2,0-14.1s-10.2-3.9-14.1,0l-20.4,20.4-28.3-28.3,145.2-145.2v56.6s-40,40-40,40c-3.9,3.9-3.9,10.2,0,14.1s10.2,3.9,14.1,0l181.2-181.2c7.6-7.6,11.7-17.6,11.7-28.3s-4.2-20.7-11.7-28.3ZM199.7,325.3l-17.7,17.7c-4.4,4.4-6.5,10.8-5.7,17l3.5,24.8c1.3,9.3-1.8,18.8-8.5,25.5l-28.7,28.7c-30.6,30.6-83.3,46.8-122.7,37.8,0,0,0,0,0,0l165.5-165.5,14.2,14.2ZM427.7,69v56.6s-20.3,20.3-20.3,20.3v-56.6s20.3-20.3,20.3-20.3ZM364.9,131.7l22.4-22.4v56.6s-22.5,22.4-22.5,22.4v-56.6ZM486.1,67.1l-38.5,38.5v-56.6s10.2-10.2,10.2-10.2c3.8-3.8,8.8-5.9,14.2-5.9s10.4,2.1,14.2,5.9c3.8,3.8,5.9,8.8,5.9,14.2s-2.1,10.4-5.9,14.2Z"/>
  <path d="M292.9,279.9c-.2-.6-.6-1.2-.9-1.7-.4-.5-.8-1.1-1.2-1.5s-1-.9-1.5-1.2c-.6-.4-1.1-.7-1.7-.9s-1.2-.4-1.9-.6c-1.3-.3-2.6-.3-3.9,0-.6.1-1.3.3-1.9.6-.6.2-1.2.6-1.7.9-.5.4-1.1.8-1.5,1.2s-.9,1-1.2,1.5c-.4.5-.7,1.1-.9,1.7-.2.6-.4,1.2-.6,1.9-.1.7-.2,1.3-.2,2s0,1.3.2,2c.1.6.3,1.3.6,1.9s.6,1.2.9,1.7c.4.5.8,1.1,1.2,1.5s1,.9,1.5,1.2c.5.4,1.1.7,1.7.9.6.2,1.2.4,1.9.6.7.1,1.3.2,2,.2s1.3,0,2-.2c.6-.1,1.3-.3,1.9-.6s1.2-.6,1.7-.9c.5-.4,1.1-.8,1.5-1.2s.9-1,1.2-1.5c.4-.6.7-1.1.9-1.7s.4-1.2.6-1.9c.1-.6.2-1.3.2-2s0-1.3-.2-2c-.1-.6-.3-1.3-.6-1.9Z"/>
  <path d="M142.5,382.4l-35.4,35.4c-3.9,3.9-3.9,10.2,0,14.1,2,2,4.5,2.9,7.1,2.9s5.1-1,7.1-2.9l35.4-35.4c3.9-3.9,3.9-10.2,0-14.1-3.9-3.9-10.2-3.9-14.1,0Z"/>
</svg>