<?xml version="1.0" encoding="iso-8859-1"?>
<!-- Generator: Adobe Illustrator 19.0.0, SVG Export Plug-In . SVG Version: 6.00 Build 0)  -->
<svg version="1.1" id="Layer_1" xmlns="http://www.w3.org/2000/svg" xmlns:xlink="http://www.w3.org/1999/xlink" x="0px" y="0px"
	 viewBox="0 0 512 512" style="enable-background:new 0 0 512 512;" xml:space="preserve">
<g>
	<g>
		<path d="M256,168.229c-48.397,0-87.771,39.374-87.771,87.771s39.375,87.771,87.771,87.771s87.771-39.374,87.771-87.771
			S304.397,168.229,256,168.229z M256,322.873c-36.874,0-66.873-29.999-66.873-66.873s29.999-66.873,66.873-66.873
			s66.873,29.999,66.873,66.873S292.874,322.873,256,322.873z"/>
	</g>
</g>
<g>
	<g>
		<path d="M353.529,158.471c-26.051-26.051-60.687-40.398-97.529-40.398s-71.477,14.346-97.528,40.398
			c-44.532,44.532-53.291,113.46-21.298,167.618c2.935,4.968,9.344,6.618,14.311,3.682c4.969-2.935,6.617-9.342,3.682-14.311
			c-27.141-45.945-19.706-104.425,18.082-142.213c22.103-22.104,51.492-34.277,82.751-34.277s60.648,12.173,82.751,34.277
			c22.105,22.104,34.278,51.493,34.278,82.752c0,31.26-12.173,60.648-34.277,82.753c-37.788,37.787-96.265,45.222-142.212,18.081
			c-4.972-2.937-11.376-1.286-14.311,3.681c-2.935,4.969-1.286,11.376,3.682,14.311c21.797,12.877,45.98,19.151,70.008,19.151
			c35.674,0,70.999-13.838,97.609-40.448c26.051-26.05,40.398-60.688,40.398-97.529S379.58,184.522,353.529,158.471z"/>
	</g>
</g>
<g>
	<g>
		<path d="M173.269,338.774l-0.091-0.091c-4.069-4.093-10.686-4.111-14.777-0.042c-4.093,4.069-4.112,10.685-0.042,14.777
			l0.091,0.091c2.042,2.054,4.726,3.081,7.409,3.081c2.664,0,5.33-1.014,7.368-3.04C177.32,349.482,177.339,342.865,173.269,338.774
			z"/>
	</g>
</g>
<g>
	<g>
		<path d="M503.582,322.693l-44.799-40.467c1.113-8.684,1.676-17.482,1.676-26.226c0-8.744-0.564-17.541-1.676-26.226l44.799-40.467
			c3.659-3.305,4.509-8.719,2.041-12.986l-55.899-96.65c-2.465-4.262-7.57-6.227-12.258-4.711l-57.381,18.543
			c-13.985-10.696-29.219-19.505-45.412-26.26L322.038,8.26C321.005,3.442,316.748,0,311.821,0H200.179
			c-4.928,0-9.185,3.442-10.217,8.26l-12.636,58.983c-16.194,6.755-31.427,15.564-45.412,26.26L74.534,74.961
			c-4.687-1.515-9.793,0.449-12.258,4.711L6.377,176.321c-2.468,4.268-1.619,9.681,2.041,12.986l44.799,40.467
			c-1.113,8.684-1.676,17.482-1.676,26.226c0,8.744,0.564,17.541,1.676,26.226L8.418,322.693c-3.659,3.305-4.509,8.719-2.041,12.986
			l55.899,96.65c2.465,4.263,7.57,6.227,12.258,4.711l57.381-18.543c13.985,10.696,29.219,19.505,45.412,26.26l12.636,58.982
			c1.032,4.818,5.289,8.26,10.217,8.26h111.641c4.928,0,9.185-3.442,10.217-8.26l12.636-58.983
			c16.194-6.755,31.427-15.564,45.412-26.26l57.381,18.543c4.687,1.515,9.793-0.449,12.258-4.711l55.899-96.649
			C508.091,331.41,507.242,325.998,503.582,322.693z M435.86,414.559l-54.647-17.66c-3.359-1.086-7.044-0.4-9.789,1.822
			c-14.977,12.127-31.649,21.768-49.554,28.655c-3.295,1.268-5.726,4.113-6.466,7.564l-12.032,56.161h-94.745l-12.032-56.161
			c-0.74-3.451-3.171-6.297-6.466-7.564c-17.905-6.887-34.578-16.528-49.554-28.655c-2.745-2.224-6.429-2.908-9.789-1.822
			l-54.647,17.66l-47.44-82.025l42.648-38.524c2.616-2.364,3.864-5.888,3.32-9.371c-1.479-9.439-2.228-19.075-2.228-28.64
			c0-9.565,0.749-19.201,2.228-28.64c0.544-3.484-0.703-7.007-3.32-9.371l-42.648-38.524l47.44-82.024l54.647,17.66
			c3.361,1.086,7.044,0.4,9.789-1.822c14.977-12.127,31.649-21.768,49.554-28.655c3.295-1.267,5.726-4.113,6.466-7.564
			l12.032-56.161h94.745l12.032,56.161c0.74,3.451,3.171,6.297,6.466,7.564c17.905,6.887,34.578,16.528,49.554,28.655
			c2.745,2.223,6.427,2.908,9.789,1.822l54.647-17.66l47.44,82.024l-42.648,38.524c-2.616,2.364-3.864,5.888-3.32,9.371
			c1.479,9.439,2.228,19.075,2.228,28.64c0,9.565-0.749,19.201-2.228,28.64c-0.544,3.484,0.703,7.007,3.32,9.371l42.648,38.524
			L435.86,414.559z"/>
	</g>
</g>
<g>
</g>
<g>
</g>
<g>
</g>
<g>
</g>
<g>
</g>
<g>
</g>
<g>
</g>
<g>
</g>
<g>
</g>
<g>
</g>
<g>
</g>
<g>
</g>
<g>
</g>
<g>
</g>
<g>
</g>
</svg>
